<svg id="Capa_1" data-name="Capa 1" xmlns="http://www.w3.org/2000/svg" viewBox="0 0 107.32 110.53"><defs><style>.cls-1{fill:#fff;}</style></defs><title>02 Cuentas</title><path class="cls-1" d="M-587.08,1167.74h-21.75a13.93,13.93,0,0,1-13.91-13.91v-21.75a13.93,13.93,0,0,1,13.91-13.91h21.75a13.93,13.93,0,0,1,13.91,13.91v21.75A13.93,13.93,0,0,1-587.08,1167.74Zm-21.75-41.57a5.92,5.92,0,0,0-5.91,5.91v21.75a5.92,5.92,0,0,0,5.91,5.91h21.75a5.92,5.92,0,0,0,5.91-5.91v-21.75a5.92,5.92,0,0,0-5.91-5.91Z" transform="translate(622.74 -1057.22)"/><path class="cls-1" d="M-529.33,1167.74h-21.75A13.93,13.93,0,0,1-565,1153.83v-21.75a13.93,13.93,0,0,1,13.91-13.91h21.75a13.93,13.93,0,0,1,13.91,13.91v21.75A13.93,13.93,0,0,1-529.33,1167.74Zm-21.75-41.57a5.92,5.92,0,0,0-5.91,5.91v21.75a5.92,5.92,0,0,0,5.91,5.91h21.75a5.92,5.92,0,0,0,5.91-5.91v-21.75a5.92,5.92,0,0,0-5.91-5.91Z" transform="translate(622.74 -1057.22)"/><path class="cls-1" d="M-587.08,1106.79h-21.75a13.93,13.93,0,0,1-13.91-13.91v-21.75a13.93,13.93,0,0,1,13.91-13.91h21.75a13.93,13.93,0,0,1,13.91,13.91v21.75A13.93,13.93,0,0,1-587.08,1106.79Zm-21.75-41.57a5.92,5.92,0,0,0-5.91,5.91v21.75a5.92,5.92,0,0,0,5.91,5.91h21.75a5.92,5.92,0,0,0,5.91-5.91v-21.75a5.92,5.92,0,0,0-5.91-5.91Z" transform="translate(622.74 -1057.22)"/><path class="cls-1" d="M-529.33,1106.79h-21.75A13.93,13.93,0,0,1-565,1092.88v-21.75a13.93,13.93,0,0,1,13.91-13.91h21.75a13.93,13.93,0,0,1,13.91,13.91v21.75A13.93,13.93,0,0,1-529.33,1106.79Zm-21.75-41.57a5.92,5.92,0,0,0-5.91,5.91v21.75a5.92,5.92,0,0,0,5.91,5.91h21.75a5.92,5.92,0,0,0,5.91-5.91v-21.75a5.92,5.92,0,0,0-5.91-5.91Z" transform="translate(622.74 -1057.22)"/></svg>