<svg id="Capa_1" data-name="Capa 1" xmlns="http://www.w3.org/2000/svg" viewBox="0 0 107.32 110.5"><defs><style>.cls-1{fill:#fff;}</style></defs><title>03 Registros</title><path class="cls-1" d="M-486.55,1122.24a11.9,11.9,0,0,1-5.48-1.31l-42.45-21.83a10.1,10.1,0,0,1-5.73-9,10.1,10.1,0,0,1,5.74-9l42.45-21.84a12.21,12.21,0,0,1,10.94,0l42.47,21.84a10.09,10.09,0,0,1,5.72,9,10.09,10.09,0,0,1-5.72,9l-42.46,21.84A12,12,0,0,1-486.55,1122.24Zm0-56.29a4.06,4.06,0,0,0-1.83.42l-42.44,21.84a2.22,2.22,0,0,0-1.4,1.89,2.22,2.22,0,0,0,1.39,1.88l42.45,21.84a4.11,4.11,0,0,0,3.65,0l42.45-21.84a2.21,2.21,0,0,0,1.38-1.88,2.21,2.21,0,0,0-1.38-1.89l-42.46-21.84A4,4,0,0,0-486.54,1066Z" transform="translate(540.21 -1057.96)"/><path class="cls-1" d="M-486.55,1145.35a12,12,0,0,1-5.48-1.3l-42.45-21.84a10.1,10.1,0,0,1-5.73-9,10.09,10.09,0,0,1,5.74-9l13.72-7,32.38,16.66a4.11,4.11,0,0,0,3.65,0l32.38-16.66,13.72,7a10.08,10.08,0,0,1,5.73,9,10.09,10.09,0,0,1-5.72,9h0l-42.45,21.84A12.05,12.05,0,0,1-486.55,1145.35Zm-34.21-39.19-10.06,5.17a2.22,2.22,0,0,0-1.39,1.88,2.22,2.22,0,0,0,1.39,1.88l42.46,21.84a4.09,4.09,0,0,0,3.64,0l42.45-21.84h0a2.2,2.2,0,0,0,1.39-1.88,2.21,2.21,0,0,0-1.38-1.88l-10.06-5.17-28.74,14.78a12.16,12.16,0,0,1-11,0Z" transform="translate(540.21 -1057.96)"/><path class="cls-1" d="M-486.55,1168.46a12,12,0,0,1-5.48-1.3l-42.45-21.84a10.09,10.09,0,0,1-5.73-9,10.09,10.09,0,0,1,5.74-9l13.72-7,32.39,16.66a4.09,4.09,0,0,0,3.64,0l32.38-16.66,13.72,7a10.1,10.1,0,0,1,5.73,9,10.06,10.06,0,0,1-5.72,9l-42.45,21.84A12.05,12.05,0,0,1-486.55,1168.46Zm-34.21-39.19-10.06,5.17a2.22,2.22,0,0,0-1.39,1.88,2.21,2.21,0,0,0,1.39,1.88l42.46,21.84a4.09,4.09,0,0,0,3.64,0l42.45-21.84a2.2,2.2,0,0,0,1.38-1.88,2.2,2.2,0,0,0-1.39-1.88l-10.05-5.17-28.73,14.78a12.18,12.18,0,0,1-11,0Z" transform="translate(540.21 -1057.96)"/></svg>