<svg id="Capa_1" data-name="Capa 1" xmlns="http://www.w3.org/2000/svg" viewBox="0 0 107.32 110.53"><defs><style>.cls-1{fill:#fff;}</style></defs><title>04 Stats</title><path class="cls-1" d="M-136.13,806.3h-3.66a13.94,13.94,0,0,1-13.93-13.92V709.7a13.94,13.94,0,0,1,13.93-13.92h3.66A13.94,13.94,0,0,1-122.2,709.7v82.68A13.94,13.94,0,0,1-136.13,806.3Zm-3.66-102.52a5.93,5.93,0,0,0-5.93,5.92v82.68a5.93,5.93,0,0,0,5.93,5.92h3.66a5.93,5.93,0,0,0,5.93-5.92V709.7a5.93,5.93,0,0,0-5.93-5.92Z" transform="translate(229.52 -695.78)"/><path class="cls-1" d="M-211.92,806.3h-3.67a13.94,13.94,0,0,1-13.93-13.92V757.59a13.94,13.94,0,0,1,13.93-13.92h3.67A13.93,13.93,0,0,1-198,757.59v34.79A13.93,13.93,0,0,1-211.92,806.3Zm-3.67-54.63a5.93,5.93,0,0,0-5.93,5.92v34.79a5.93,5.93,0,0,0,5.93,5.92h3.67a5.93,5.93,0,0,0,5.92-5.92V757.59a5.93,5.93,0,0,0-5.92-5.92Z" transform="translate(229.52 -695.78)"/><path class="cls-1" d="M-174,806.3h-3.67a13.94,13.94,0,0,1-13.93-13.92V733.65a14,14,0,0,1,13.93-13.93H-174a13.94,13.94,0,0,1,13.92,13.93v58.73A13.94,13.94,0,0,1-174,806.3Zm-3.67-78.58a5.94,5.94,0,0,0-5.93,5.93v58.73a5.93,5.93,0,0,0,5.93,5.92H-174a5.93,5.93,0,0,0,5.92-5.92V733.65a5.93,5.93,0,0,0-5.92-5.93Z" transform="translate(229.52 -695.78)"/></svg>