<svg id="Capa_1" data-name="Capa 1" xmlns="http://www.w3.org/2000/svg" viewBox="0 0 107.32 110.52"><defs><style>.cls-1{fill:#fff;}</style></defs><title>05 Ajustes</title><path class="cls-1" d="M-148.34,630.43h-58.37a4,4,0,0,1-4-4,4,4,0,0,1,4-4h58.37a4,4,0,0,1,4,4A4,4,0,0,1-148.34,630.43Z" transform="translate(251.66 -609.56)"/><path class="cls-1" d="M-232.45,630.43h-15.21a4,4,0,0,1-4-4,4,4,0,0,1,4-4h15.21a4,4,0,0,1,4,4A4,4,0,0,1-232.45,630.43Z" transform="translate(251.66 -609.56)"/><path class="cls-1" d="M-219.58,643.3a16.89,16.89,0,0,1-16.87-16.87,16.89,16.89,0,0,1,16.87-16.87,16.89,16.89,0,0,1,16.87,16.87A16.89,16.89,0,0,1-219.58,643.3Zm0-25.74a8.88,8.88,0,0,0-8.87,8.87,8.88,8.88,0,0,0,8.87,8.87,8.88,8.88,0,0,0,8.87-8.87A8.88,8.88,0,0,0-219.58,617.56Z" transform="translate(251.66 -609.56)"/><path class="cls-1" d="M-148.34,707.21h-58.37a4,4,0,0,1-4-4,4,4,0,0,1,4-4h58.37a4,4,0,0,1,4,4A4,4,0,0,1-148.34,707.21Z" transform="translate(251.66 -609.56)"/><path class="cls-1" d="M-232.45,707.21h-15.21a4,4,0,0,1-4-4,4,4,0,0,1,4-4h15.21a4,4,0,0,1,4,4A4,4,0,0,1-232.45,707.21Z" transform="translate(251.66 -609.56)"/><path class="cls-1" d="M-219.58,720.08a16.89,16.89,0,0,1-16.87-16.87,16.89,16.89,0,0,1,16.87-16.87,16.89,16.89,0,0,1,16.87,16.87A16.89,16.89,0,0,1-219.58,720.08Zm0-25.74a8.88,8.88,0,0,0-8.87,8.87,8.88,8.88,0,0,0,8.87,8.87,8.88,8.88,0,0,0,8.87-8.87A8.88,8.88,0,0,0-219.58,694.34Z" transform="translate(251.66 -609.56)"/><path class="cls-1" d="M-189.29,668.82h-58.37a4,4,0,0,1-4-4,4,4,0,0,1,4-4h58.37a4,4,0,0,1,4,4A4,4,0,0,1-189.29,668.82Z" transform="translate(251.66 -609.56)"/><path class="cls-1" d="M-148.34,668.82h-15.2a4,4,0,0,1-4-4,4,4,0,0,1,4-4h15.2a4,4,0,0,1,4,4A4,4,0,0,1-148.34,668.82Z" transform="translate(251.66 -609.56)"/><path class="cls-1" d="M-176.42,681.69a16.89,16.89,0,0,1-16.87-16.87A16.89,16.89,0,0,1-176.42,648a16.89,16.89,0,0,1,16.88,16.87A16.89,16.89,0,0,1-176.42,681.69Zm0-25.74a8.88,8.88,0,0,0-8.87,8.87,8.88,8.88,0,0,0,8.87,8.87,8.88,8.88,0,0,0,8.88-8.87A8.88,8.88,0,0,0-176.42,656Z" transform="translate(251.66 -609.56)"/></svg>