<svg id="Capa_1" data-name="Capa 1" xmlns="http://www.w3.org/2000/svg" viewBox="0 0 107.31 107.32"><defs><style>.cls-1{fill:#fff;}</style></defs><title>06 Ingreso</title><path class="cls-1" d="M-144.3,632.8a53.72,53.72,0,0,0-53.65,53.66,53.72,53.72,0,0,0,53.65,53.66,53.72,53.72,0,0,0,53.66-53.66A53.72,53.72,0,0,0-144.3,632.8Zm0,99.32a45.71,45.71,0,0,1-45.65-45.66A45.71,45.71,0,0,1-144.3,640.8a45.71,45.71,0,0,1,45.66,45.66A45.71,45.71,0,0,1-144.3,732.12Z" transform="translate(197.95 -632.8)"/><path class="cls-1" d="M-127.59,696.61a12.2,12.2,0,0,1-4,9.45,16.88,16.88,0,0,1-9.88,4l0,2a4.27,4.27,0,0,1-.62,2.49,3.19,3.19,0,0,1-2.52.83h-1.14a2.87,2.87,0,0,1-2.43-.8,4,4,0,0,1-.46-2.58l0-2.09c-4.75-.57-8.5-2.06-11.13-4.44a3.08,3.08,0,0,1-1.21-2.38,3.4,3.4,0,0,1,1.26-2.44l1.38-1.11a3.7,3.7,0,0,1,2.52-1.11,4.29,4.29,0,0,1,2.41.94q3.45,2.79,9.26,2.78a9.28,9.28,0,0,0,5.62-1.6,4.46,4.46,0,0,0,2-3.76,4.38,4.38,0,0,0-2-3.67,19.57,19.57,0,0,0-5.53-2.75c-2.27-.76-4.57-1.62-6.84-2.56a16,16,0,0,1-6.15-4.48,11.44,11.44,0,0,1-2.64-7.68,11.65,11.65,0,0,1,3.67-8.93,15.74,15.74,0,0,1,9.09-3.77l0-2a9.62,9.62,0,0,1,.22-1.76,2,2,0,0,1,1.09-1.28,4.07,4.07,0,0,1,1.83-.33h1.14a3,3,0,0,1,2.51.86,3.91,3.91,0,0,1,.38,2.62l-.09,1.89a20.55,20.55,0,0,1,9.15,3.78,3,3,0,0,1,1.35,2.32,3.05,3.05,0,0,1-1.41,2.44l-1.57,1.2a7.25,7.25,0,0,1-1.11.68,2.48,2.48,0,0,1-1.29.24l-.45,0a2.21,2.21,0,0,1-1.09-.38l-.44-.22a12,12,0,0,0-6.7-2.05,9.91,9.91,0,0,0-5.58,1.29,3.81,3.81,0,0,0-1.68,3.37,3.71,3.71,0,0,0,1,2.58,8,8,0,0,0,3,2l9.31,3.91a26.39,26.39,0,0,1,4.74,2.54,11.6,11.6,0,0,1,3.64,4.11A12.22,12.22,0,0,1-127.59,696.61Z" transform="translate(197.95 -632.8)"/></svg>