<svg id="Capa_1" data-name="Capa 1" xmlns="http://www.w3.org/2000/svg" viewBox="0 0 107.32 107.32"><defs><style>.cls-1{fill:#fff;}</style></defs><title>07 Alimentos</title><path class="cls-1" d="M-98.2,636.9a53.72,53.72,0,0,0-53.66,53.66,53.72,53.72,0,0,0,31.41,48.82,52.21,52.21,0,0,0,9.56,3.32,53.12,53.12,0,0,0,12.69,1.52,53.63,53.63,0,0,0,12.75-1.53,52,52,0,0,0,8.81-3,53.72,53.72,0,0,0,32.1-49.13A53.72,53.72,0,0,0-98.2,636.9ZM-77,731q-.49-11.68-1-23.36c0-1.06,0-2.07,1.14-2.65,6.6-3.4,8-9.41,8.15-14.33,0-8.17-1.64-13.81-4.61-17.61-4.38-5.59-10.67-5.6-15,0-3.49,4.48-4.76,9.74-4.8,15.26,0,6.29.94,12.34,7,16a4,4,0,0,1,2.26,4.14c-.43,8.63-.79,17.26-1.15,25.89a45.5,45.5,0,0,1-13.12,1.92,45.41,45.41,0,0,1-13-1.9q-.56-12.71-1.14-25.42a4.15,4.15,0,0,1,1.86-3.93,14.43,14.43,0,0,0,6.23-12.45c-.19-7-.59-13.94-.93-20.92a8.62,8.62,0,0,0-.34-2,1.67,1.67,0,0,0-1.64-1.4,1.77,1.77,0,0,0-1.73,1.64,12.8,12.8,0,0,0-.13,2.32c0,6,0,12.07,0,18.11,0,.93.43,2.5-1,2.49-1.19,0-.8-1.51-.81-2.37,0-6,0-11.91,0-17.86a12.58,12.58,0,0,0-.28-2.81,1.66,1.66,0,0,0-1.81-1.5,1.83,1.83,0,0,0-1.63,1.75,17.93,17.93,0,0,0-.09,2.32c0,6.13,0,12.25,0,18.38,0,.81.23,2.07-.89,2.11s-.85-1.24-.9-2c-.08-1,0-1.9,0-2.85,0-5.61,0-11.21,0-16.82,0-1.31-.25-2.86-1.94-2.84s-1.85,1.54-1.85,2.89c0,3.28,0,6.56,0,9.84h0c0,3.27,0,6.55,0,9.83,0,.8.23,2.06-1,2s-.8-1.3-.87-2.1a20.4,20.4,0,0,1,0-2.07c0-5.78,0-11.56,0-17.34,0-1.38-.13-3.07-2-3-1.69,0-1.77,1.59-1.86,2.91q-.73,9.8-1.44,19.59a15.25,15.25,0,0,0,6.68,14.3,3.9,3.9,0,0,1,1.65,3.76c-.26,7-.42,14-.69,20.94,0,.3,0,.61,0,.91a45.69,45.69,0,0,1-23.85-40.1A45.71,45.71,0,0,1-98.2,644.9a45.71,45.71,0,0,1,45.66,45.66A45.72,45.72,0,0,1-77,731Z" transform="translate(151.86 -636.9)"/></svg>