<svg id="Capa_1" data-name="Capa 1" xmlns="http://www.w3.org/2000/svg" viewBox="0 0 108.51 110.53"><defs><style>.cls-1{fill:#fff;}</style></defs><title>08 Filtrar</title><path class="cls-1" d="M-149.38,747.43a8.9,8.9,0,0,1-4.57-1.28,9.3,9.3,0,0,1-4.5-8V692.38A14.52,14.52,0,0,0-162.81,682l-29.27-28.55a9.62,9.62,0,0,1-2.2-10.56,9.63,9.63,0,0,1,8.95-6h89.16a9.63,9.63,0,0,1,9,6,9.62,9.62,0,0,1-2.2,10.56h0L-118.69,682A14.52,14.52,0,0,0-123,692.38v36.49a9.33,9.33,0,0,1-4.88,8.27l-17.26,9.23A9,9,0,0,1-149.38,747.43Zm-36-102.53a1.58,1.58,0,0,0-1.54,1,1.59,1.59,0,0,0,.38,1.83l29.27,28.54a22.57,22.57,0,0,1,6.77,16.07V738.1a1.31,1.31,0,0,0,.62,1.19.81.81,0,0,0,.87,0l17.26-9.23a1.35,1.35,0,0,0,.65-1.21V692.38a22.53,22.53,0,0,1,6.78-16.07L-95,647.77a1.59,1.59,0,0,0,.38-1.83,1.59,1.59,0,0,0-1.55-1Z" transform="translate(195 -636.9)"/></svg>