<svg id="Capa_1" data-name="Capa 1" xmlns="http://www.w3.org/2000/svg" viewBox="0 0 104.12 104.12"><defs><style>.cls-1{fill:none;stroke:#fff;stroke-miterlimit:10;}.cls-2{fill:#fff;}</style></defs><title>09 Agregar</title><g id="Grupo_39" data-name="Grupo 39"><g id="Elipse_13" data-name="Elipse 13"><circle class="cls-1" cx="52.06" cy="52.06" r="51.56"/><path class="cls-2" d="M-94.48,741.39A51.62,51.62,0,0,1-146,689.83a51.62,51.62,0,0,1,51.56-51.56,51.62,51.62,0,0,1,51.56,51.56A51.62,51.62,0,0,1-94.48,741.39Zm0-96.94a45.43,45.43,0,0,0-45.37,45.38A45.42,45.42,0,0,0-94.48,735.2a45.42,45.42,0,0,0,45.37-45.37A45.43,45.43,0,0,0-94.48,644.45Z" transform="translate(146.54 -637.77)"/></g><g id="Más"><g id="Rectángulo_10" data-name="Rectángulo 10"><path class="cls-2" d="M-94.48,665.08h0a4.12,4.12,0,0,1,4.12,4.12v41.25a4.12,4.12,0,0,1-4.12,4.13h0a4.13,4.13,0,0,1-4.13-4.13V669.2A4.13,4.13,0,0,1-94.48,665.08Z" transform="translate(146.54 -637.77)"/></g><g id="Rectángulo_11" data-name="Rectángulo 11"><path class="cls-2" d="M-119.23,689.83h0a4.13,4.13,0,0,1,4.13-4.13h41.24a4.13,4.13,0,0,1,4.13,4.13h0A4.12,4.12,0,0,1-73.86,694H-115.1A4.12,4.12,0,0,1-119.23,689.83Z" transform="translate(146.54 -637.77)"/></g></g></g></svg>