<svg id="Capa_1" data-name="Capa 1" xmlns="http://www.w3.org/2000/svg" viewBox="0 0 76.44 110.53"><defs><style>.cls-1{fill:#fff;}</style></defs><title>10 Notificaciones</title><path class="cls-1" d="M-44.94,768.4h-61.88a7.29,7.29,0,0,1-7.28-7.28V723.38a38.26,38.26,0,0,1,38.22-38.22,38.26,38.26,0,0,1,38.22,38.22v37.74A7.29,7.29,0,0,1-44.94,768.4Zm-61.16-8h60.44v-37a30.26,30.26,0,0,0-30.22-30.22,30.26,30.26,0,0,0-30.22,30.22Z" transform="translate(114.1 -673.34)"/><path class="cls-1" d="M-60.22,681.34H-91.54a4,4,0,0,1-4-4,4,4,0,0,1,4-4h31.32a4,4,0,0,1,4,4A4,4,0,0,1-60.22,681.34Z" transform="translate(114.1 -673.34)"/><path class="cls-1" d="M-75.72,783.86H-76A19.48,19.48,0,0,1-95.5,764.4v-4h39.24v4A19.48,19.48,0,0,1-75.72,783.86ZM-86.78,768.4A11.48,11.48,0,0,0-76,775.86h.32A11.47,11.47,0,0,0-65,768.4Z" transform="translate(114.1 -673.34)"/></svg>