<svg id="Capa_1" data-name="Capa 1" xmlns="http://www.w3.org/2000/svg" viewBox="0 0 105.74 105.74"><defs><style>.cls-1{fill:#fff;}</style></defs><title>11 Ayuda</title><path class="cls-1" d="M-232.85,670.13h9.18a1.65,1.65,0,0,0,.45.11l2.09.25a49,49,0,0,1,8.63,1.88,52.54,52.54,0,0,1,24.17,15.83,52,52,0,0,1,13,33,50.07,50.07,0,0,1-.25,6.93,53.28,53.28,0,0,1-1.51,8.2,52.29,52.29,0,0,1-16,26.21,51.53,51.53,0,0,1-33.12,13.25c-1.65.06-3.3,0-4.95-.1a55.21,55.21,0,0,1-6.77-.87,57.62,57.62,0,0,1-14.63-4.82,48.16,48.16,0,0,1-17.37-14.37,58.28,58.28,0,0,1-7.36-13.08,46.68,46.68,0,0,1-3.24-11.34c-.16-1.13-.32-2.26-.49-3.39V718c0-.09,0-.18,0-.26.14-1.06.23-2.13.43-3.17a63.48,63.48,0,0,1,4-13.12,49.41,49.41,0,0,1,18.45-22.24,59.79,59.79,0,0,1,11.92-6,43.75,43.75,0,0,1,9.8-2.6Zm48.36,52.8a43.81,43.81,0,0,0-43-43.76A43.83,43.83,0,0,0-272,722.22a43.82,43.82,0,0,0,42.87,44.48A43.83,43.83,0,0,0-184.49,722.93Z" transform="translate(281.02 -670.13)"/><path class="cls-1" d="M-228.38,736.69c0-4.14,0-8.28,0-12.42,0-1.12-.08-1.2-1.19-1.2h-3.14a4.54,4.54,0,0,1-4.52-4.63,4.46,4.46,0,0,1,3.63-4.35,13.32,13.32,0,0,1,1.55-.14,20.56,20.56,0,0,1,5.91.3,8.85,8.85,0,0,1,6.8,7.56,5.63,5.63,0,0,1,.05.59c.06,3.17.1,6.34,0,9.51-.05,2.94,0,5.88,0,8.82,0,1.36.06,2.73,0,4.09,0,1.57,0,3.15,0,4.72a4.54,4.54,0,0,1-4.39,4.34,4.55,4.55,0,0,1-4.53-3.25,6.4,6.4,0,0,1-.17-1.57V736.69Z" transform="translate(281.02 -670.13)"/><path class="cls-1" d="M-221.53,698.76a6.67,6.67,0,0,1-6.75,6.78,6.71,6.71,0,0,1-6.69-6.82,6.74,6.74,0,0,1,6.68-6.77A6.7,6.7,0,0,1-221.53,698.76Z" transform="translate(281.02 -670.13)"/></svg>