<svg id="Capa_1" data-name="Capa 1" xmlns="http://www.w3.org/2000/svg" viewBox="0 0 102.29 102.26"><defs><style>.cls-1{fill:#fff;}</style></defs><title>12 Salie</title><path class="cls-1" d="M-58.9,725.5a30.75,30.75,0,0,1-1.23,4.21,16.16,16.16,0,0,1-3.36,5.14q-8.41,8.46-16.86,16.87a4.13,4.13,0,0,1-4.48,1.12,4.19,4.19,0,0,1-3-3.55,4.42,4.42,0,0,1,1.49-3.94q7.92-7.89,15.81-15.8a15,15,0,0,0,1.07-1.18c.2-.25.58-.51.45-.83s-.59-.18-.9-.18h-4.29c-12.34,0-24.68-.07-37,0-7.91.07-15.82.05-23.74.11A4.87,4.87,0,0,1-138.8,726a4.34,4.34,0,0,1,2.14-7.14,8.53,8.53,0,0,1,2.08-.19l64.15-.05a4,4,0,0,0,.6,0c.25,0,.6.13.72-.17s-.16-.49-.33-.68c-.35-.4-.71-.79-1.09-1.16q-7.83-7.85-15.66-15.66a4.38,4.38,0,0,1-1.4-4.34,4.34,4.34,0,0,1,7.18-2.2c.17.15.33.32.5.48,5.22,5.22,10.42,10.47,15.67,15.66a17.8,17.8,0,0,1,5.18,9.57c0,.2.1.38.16.58Z" transform="translate(161.19 -672.02)"/><path class="cls-1" d="M-130.15,672c2.66,1.17,3.77,3.22,3,5.59a4.33,4.33,0,0,1-4.23,3c-2.76,0-5.52,0-8.28,0a12.6,12.6,0,0,0-12.8,12.76q0,29.67,0,59.35a12.61,12.61,0,0,0,12.77,12.79c2.82,0,5.65,0,8.48,0a4.36,4.36,0,0,1,4.27,4,4.34,4.34,0,0,1-3.22,4.58,5.77,5.77,0,0,1-1.38.13q-4.29,0-8.58,0A21.37,21.37,0,0,1-161,756a24,24,0,0,1-.18-3.28c0-19.72.08-39.44,0-59.15A21.59,21.59,0,0,1-143,672.15a4.27,4.27,0,0,0,.48-.13Z" transform="translate(161.19 -672.02)"/></svg>