<svg id="Capa_1" data-name="Capa 1" xmlns="http://www.w3.org/2000/svg" viewBox="0 0 11.21 22.25"><defs><style>.cls-1{fill:#0c4a6e}</style></defs><title>13 Flecha</title><g id="Grupo_89" data-name="Grupo 89"><g id="Grupo_74" data-name="Grupo 74"><path id="Trazado_97" data-name="Trazado 97" class="cls-1" d="M-49.57,737.94a2,2,0,0,1,.64-1.16c2.27-2.3,4.55-4.6,6.81-6.9a1.68,1.68,0,0,0,.55-1.63,1.86,1.86,0,0,0-.58-.92l-6.81-6.9a1.67,1.67,0,0,1-.47-1.95,1.56,1.56,0,0,1,2-.87,2,2,0,0,1,.32.18,3.31,3.31,0,0,1,.44.39c2.25,2.29,4.48,4.59,6.74,6.87a4.92,4.92,0,0,1,1.54,3.49A4.62,4.62,0,0,1-39.7,732q-3.52,3.63-7.09,7.24a1.55,1.55,0,0,1-1.83.4A1.72,1.72,0,0,1-49.57,737.94Z" transform="translate(49.57 -717.5)"/></g></g></svg>