<svg id="Capa_1" data-name="Capa 1" xmlns="http://www.w3.org/2000/svg" viewBox="0 0 11.21 22.25"><defs><style>.cls-1{fill:#c084fc !important;}</style></defs><title>14 Flecha izq</title><g id="Grupo_89" data-name="Grupo 89"><g id="Grupo_74" data-name="Grupo 74"><path id="Trazado_97" data-name="Trazado 97" class="cls-1" d="M-58,737.94a1.9,1.9,0,0,0-.64-1.16l-6.81-6.9a1.68,1.68,0,0,1-.55-1.63,2,2,0,0,1,.59-.92l6.81-6.9a1.68,1.68,0,0,0,.47-1.95,1.56,1.56,0,0,0-2-.87,1.74,1.74,0,0,0-.33.18,4.09,4.09,0,0,0-.44.39c-2.24,2.29-4.48,4.59-6.74,6.87a5,5,0,0,0-1.54,3.49A4.62,4.62,0,0,0-67.83,732q3.52,3.63,7.09,7.24a1.55,1.55,0,0,0,1.83.4A1.7,1.7,0,0,0-58,737.94Z" transform="translate(69.16 -717.5)"/></g></g></svg>