<svg id="Capa_1" data-name="Capa 1" xmlns="http://www.w3.org/2000/svg" viewBox="0 0 54.18 54.18"><defs><style>.cls-1{fill:#fff;}</style></defs><title>15 Agregar simple</title><g id="Grupo_48" data-name="Grupo 48"><g id="Más"><path id="Rectángulo_10" data-name="Rectángulo 10" class="cls-1" d="M-62.38,698.66h0a6.25,6.25,0,0,1,6.25,6.25v41.68a6.25,6.25,0,0,1-6.25,6.25h0a6.25,6.25,0,0,1-6.25-6.25V704.91A6.25,6.25,0,0,1-62.38,698.66Z" transform="translate(89.47 -698.66)"/><path id="Rectángulo_11" data-name="Rectángulo 11" class="cls-1" d="M-89.47,725.75h0a6.25,6.25,0,0,1,6.25-6.25h41.68a6.25,6.25,0,0,1,6.25,6.25h0A6.25,6.25,0,0,1-41.54,732H-83.22A6.25,6.25,0,0,1-89.47,725.75Z" transform="translate(89.47 -698.66)"/></g></g></svg>