<svg id="Capa_1" data-name="Capa 1" xmlns="http://www.w3.org/2000/svg" viewBox="0 0 107.21 107.17"><defs><style>.cls-1{fill:#fff;}</style></defs><title>16 Calendario</title><path class="cls-1" d="M-158.9,797.56h-68.19c-.27-.06-.54-.13-.81-.17A22.66,22.66,0,0,1-246.66,775c.14-17.84,0-35.69,0-53.54A22.35,22.35,0,0,1-229.88,700a32.35,32.35,0,0,1,8.82-.76c.9,0,1.27-.31,1.22-1.22s0-2,0-3a4.44,4.44,0,0,1,4.41-4.59,4.53,4.53,0,0,1,4.71,4.45c0,.94,0,1.88,0,2.83,0,1.54,0,1.55,1.6,1.55h26.77c2,0,4,0,6,0,.8,0,1.13-.31,1.11-1.12q-.06-1.62,0-3.24a4.53,4.53,0,0,1,4.68-4.48,4.45,4.45,0,0,1,4.45,4.56c0,.94,0,1.89,0,2.83,0,1.4,0,1.44,1.49,1.44.94,0,1.88,0,2.83,0a22.52,22.52,0,0,1,17.31,8.16,23,23,0,0,1,5.06,11.52v59.2c-.06.3-.13.61-.19.91a22.43,22.43,0,0,1-9.43,14.71A23.69,23.69,0,0,1-158.9,797.56Zm-34-62.3h-42.88c-1.66,0-1.66,0-1.66,1.6q0,19.08,0,38.17A13.21,13.21,0,0,0-224,788.5h62.12a11.6,11.6,0,0,0,1.77-.09c7.14-1.14,11.65-6.44,11.65-13.7q0-18.83,0-37.65c0-1.8,0-1.8-1.76-1.8Zm-.17-9.26h42.44c.35,0,.7,0,1,0,.79,0,1.15-.28,1.12-1.1,0-1.08,0-2.16,0-3.24a13.1,13.1,0,0,0-13.06-13.15q-31.41-.07-62.83,0a13,13,0,0,0-12.92,11.16,30.63,30.63,0,0,0-.15,4.59c0,1.74,0,1.75,1.71,1.75Z" transform="translate(246.66 -690.39)"/><path class="cls-1" d="M-170.66,750.63a6.76,6.76,0,0,1,6.8,6.74,6.77,6.77,0,0,1-6.85,6.8,6.8,6.8,0,0,1-6.81-6.74A6.79,6.79,0,0,1-170.66,750.63Z" transform="translate(246.66 -690.39)"/><path class="cls-1" d="M-215.22,750.63a6.8,6.8,0,0,1,6.75,6.8,6.8,6.8,0,0,1-6.92,6.74,6.78,6.78,0,0,1-6.74-6.8A6.77,6.77,0,0,1-215.22,750.63Z" transform="translate(246.66 -690.39)"/><path class="cls-1" d="M-199.77,757.35a6.69,6.69,0,0,1,6.8-6.72,6.68,6.68,0,0,1,6.75,6.87,6.68,6.68,0,0,1-6.85,6.67A6.68,6.68,0,0,1-199.77,757.35Z" transform="translate(246.66 -690.39)"/></svg>