<svg id="Capa_1" data-name="Capa 1" xmlns="http://www.w3.org/2000/svg" viewBox="0 0 98.63 98.64"><defs><style>.cls-1{fill:#fff;}</style></defs><title>17 Deshacer</title><path class="cls-1" d="M-62,793a57.29,57.29,0,0,1-8.22-1.46q-29.4-8.57-36.2-38.42a38.11,38.11,0,0,1-.88-9.36,4.21,4.21,0,0,1,4.07-4.27,4.23,4.23,0,0,1,4.31,4.16,38.22,38.22,0,0,0,1.48,10.92c5,16.24,15.81,26.38,32.53,29.44A40.47,40.47,0,0,0-18.1,752.44c2.86-13.62-.44-25.85-9.78-36.26a38.92,38.92,0,0,0-25.07-13,40.23,40.23,0,0,0-32.69,10.38,10.45,10.45,0,0,0-.82.81.79.79,0,0,0-.13.26c.32.26.68.14,1,.14,3.62,0,7.25,0,10.87,0a4.2,4.2,0,0,1,4.47,4.46,4.09,4.09,0,0,1-4.14,4c-4.62,0-9.24.28-13.85-.13A12.22,12.22,0,0,1-99,712.29c-.4-4.6-.17-9.23-.11-13.84a4.07,4.07,0,0,1,4.41-4.1,4.17,4.17,0,0,1,4,4.31c.06,2.25,0,4.5,0,6.74a2.3,2.3,0,0,0,.1,1c.35.07.52-.21.73-.39a47.85,47.85,0,0,1,24.92-11.22,48.21,48.21,0,0,1,38,10.51,48.27,48.27,0,0,1,17.4,28.9c.36,1.78.55,3.61.82,5.41v8.08c-.33,2.22-.53,4.45-1.08,6.63q-7.27,28.77-35.75,37.11a55.57,55.57,0,0,1-8.4,1.5Z" transform="translate(107.33 -694.32)"/><path class="cls-1" d="M-62.23,733.3c0-3.27,0-6.55,0-9.82s2.88-5.33,5.75-4.24a4.35,4.35,0,0,1,2.74,4.44c0,5.68,0,11.35,0,17a2.76,2.76,0,0,0,.9,2.2c3.38,3.32,6.75,6.68,10.07,10.06a4.17,4.17,0,0,1-1.78,7,4,4,0,0,1-4-1q-6.26-6.21-12.46-12.46a4.51,4.51,0,0,1-1.2-3.35Z" transform="translate(107.33 -694.32)"/></svg>