<svg id="Capa_1" data-name="Capa 1" xmlns="http://www.w3.org/2000/svg" viewBox="0 0 44.23 35.57"><defs><style>.cls-1{fill:#fff;}</style></defs><title>18 Listado</title><g id="Grupo_258" data-name="Grupo 258"><g id="Grupo_256" data-name="Grupo 256"><path id="Trazado_268" data-name="Trazado 268" class="cls-1" d="M-139,754.15H-172c-3.07,0-5.57-1.77-5.57-3.95v-1c0-2.17,2.5-3.95,5.57-3.95H-139c3.08,0,5.57,1.77,5.57,3.95v1C-133.4,752.38-135.89,754.15-139,754.15Z" transform="translate(177.62 -718.58)"/><path id="Trazado_273" data-name="Trazado 273" class="cls-1" d="M-139,727.5H-172c-3.07,0-5.57-1.76-5.57-4v-1c0-2.17,2.5-3.94,5.57-3.94H-139c3.08,0,5.57,1.77,5.57,3.94v1C-133.4,725.74-135.89,727.5-139,727.5Z" transform="translate(177.62 -718.58)"/><path id="Trazado_272" data-name="Trazado 272" class="cls-1" d="M-139,740.82H-172c-3.07,0-5.57-1.76-5.57-4v-1c0-2.18,2.5-4,5.57-4H-139c3.08,0,5.57,1.77,5.57,4v1C-133.4,739.06-135.89,740.82-139,740.82Z" transform="translate(177.62 -718.58)"/></g></g></svg>