<svg id="Capa_1" data-name="Capa 1" xmlns="http://www.w3.org/2000/svg" viewBox="0 0 43.64 39.47"><defs><style>.cls-1{fill:#fff;}</style></defs><title>19 Gráfica</title><g id="Grupo_257" data-name="Grupo 257"><g id="Grupo_256-2" data-name="Grupo 256-2"><path id="Trazado_267" data-name="Trazado 267" class="cls-1" d="M-61.86,738.48V750.9a5,5,0,0,1-5,5h-1.31a5,5,0,0,1-5-5V738.48a5,5,0,0,1,5-5h1.31A5,5,0,0,1-61.86,738.48Z" transform="translate(73.12 -716.4)"/><path id="Trazado_268-2" data-name="Trazado 268-2" class="cls-1" d="M-29.48,721.38V750.9a5,5,0,0,1-5,5h-1.31a5,5,0,0,1-5-5V721.38a5,5,0,0,1,5-5h1.31A5,5,0,0,1-29.48,721.38Z" transform="translate(73.12 -716.4)"/><path id="Trazado_269" data-name="Trazado 269" class="cls-1" d="M-45.66,729.93v21a5,5,0,0,1-5,5h-1.31a5,5,0,0,1-5-5v-21a5,5,0,0,1,5-5h1.31A5,5,0,0,1-45.66,729.93Z" transform="translate(73.12 -716.4)"/></g></g></svg>