<svg id="Capa_1" data-name="Capa 1" xmlns="http://www.w3.org/2000/svg" viewBox="0 0 50 50"><defs><style>.cls-1{fill:#2c445e;}.cls-2,.cls-3{fill:#fff;}.cls-2{opacity:0.56;isolation:isolate;}.cls-4{fill:#21f9da;}.cls-5{fill:#160041;}.cls-6{fill:#00c7aa;}</style></defs><title>20 Avatar oso 1</title><g id="Grupo_53" data-name="Grupo 53"><circle id="Elipse_9" data-name="Elipse 9" class="cls-1" cx="25" cy="25" r="25"/><g id="Avatar_Oso" data-name="Avatar Oso"><path id="Trazado_15" data-name="Trazado 15" class="cls-2" d="M-76.15,750.53a1.54,1.54,0,0,1-1.54,1.54,1.54,1.54,0,0,1-1.54-1.54A1.54,1.54,0,0,1-77.69,749,1.54,1.54,0,0,1-76.15,750.53Z" transform="translate(95.45 -721.56)"/><path id="Trazado_16" data-name="Trazado 16" class="cls-3" d="M-79.54,739.86a12.32,12.32,0,0,0-3.66,4.2,2.77,2.77,0,0,1-1.57-2.48,2.86,2.86,0,0,1,2.92-2.8A2.93,2.93,0,0,1-79.54,739.86Z" transform="translate(95.45 -721.56)"/><path id="Trazado_17" data-name="Trazado 17" class="cls-4" d="M-79.54,739.86a12.32,12.32,0,0,0-3.66,4.2,2.77,2.77,0,0,1-1.57-2.48,2.86,2.86,0,0,1,2.92-2.8A2.93,2.93,0,0,1-79.54,739.86Z" transform="translate(95.45 -721.56)"/><path id="Trazado_18" data-name="Trazado 18" class="cls-5" d="M-76.15,750.53a1.54,1.54,0,0,1-1.54,1.54,1.54,1.54,0,0,1-1.54-1.54A1.54,1.54,0,0,1-77.69,749,1.54,1.54,0,0,1-76.15,750.53Z" transform="translate(95.45 -721.56)"/><path id="Trazado_19" data-name="Trazado 19" class="cls-2" d="M-62.43,750.53A1.54,1.54,0,0,1-64,752.07a1.54,1.54,0,0,1-1.54-1.54A1.54,1.54,0,0,1-64,749,1.54,1.54,0,0,1-62.43,750.53Z" transform="translate(95.45 -721.56)"/><path id="Trazado_20" data-name="Trazado 20" class="cls-4" d="M-65.43,755c0,2.05-2.42,3.72-5.4,3.72s-5.4-1.67-5.4-3.72,2.42-3.73,5.4-3.73S-65.43,753-65.43,755Z" transform="translate(95.45 -721.56)"/><path id="Trazado_21" data-name="Trazado 21" class="cls-6" d="M-54.45,740.92a4.77,4.77,0,0,0-4.86-4.67,4.9,4.9,0,0,0-4.38,2.63,14.94,14.94,0,0,0-7.14-1.78A15,15,0,0,0-78,738.88a4.9,4.9,0,0,0-4.37-2.63,4.78,4.78,0,0,0-4.87,4.67,4.7,4.7,0,0,0,3.43,4.45,10.84,10.84,0,0,0-.67,3.74c0,6.64,6.1,12,13.63,12s13.63-5.37,13.63-12a10.62,10.62,0,0,0-.68-3.74A4.68,4.68,0,0,0-54.45,740.92Zm-28.75,3.14a2.8,2.8,0,0,1-1.57-2.49,2.87,2.87,0,0,1,2.92-2.8,3,3,0,0,1,2.32,1.09,12.25,12.25,0,0,0-3.67,4.2Zm5.51,8a1.54,1.54,0,0,1-1.54-1.54A1.54,1.54,0,0,1-77.69,749a1.54,1.54,0,0,1,1.54,1.54,1.54,1.54,0,0,1-1.54,1.54Zm6.86,6.67c-3,0-5.4-1.67-5.4-3.72s2.42-3.73,5.4-3.73,5.4,1.67,5.4,3.73S-67.85,758.74-70.83,758.74Zm6.85-6.67a1.54,1.54,0,0,1-1.54-1.54A1.54,1.54,0,0,1-64,749a1.55,1.55,0,0,1,1.55,1.54A1.56,1.56,0,0,1-64,752.07Zm5.51-8a12.32,12.32,0,0,0-3.66-4.2,2.91,2.91,0,0,1,2.31-1.09,2.86,2.86,0,0,1,2.92,2.8,2.76,2.76,0,0,1-1.57,2.49Z" transform="translate(95.45 -721.56)"/><path id="Trazado_22" data-name="Trazado 22" class="cls-3" d="M-56.9,741.58a2.77,2.77,0,0,1-1.57,2.48,12.32,12.32,0,0,0-3.66-4.2,2.91,2.91,0,0,1,2.31-1.09,2.86,2.86,0,0,1,2.92,2.81Z" transform="translate(95.45 -721.56)"/><path id="Trazado_23" data-name="Trazado 23" class="cls-4" d="M-56.9,741.58a2.77,2.77,0,0,1-1.57,2.48,12.32,12.32,0,0,0-3.66-4.2,2.91,2.91,0,0,1,2.31-1.09,2.86,2.86,0,0,1,2.92,2.81Z" transform="translate(95.45 -721.56)"/><path id="Trazado_24" data-name="Trazado 24" class="cls-5" d="M-62.43,750.53A1.54,1.54,0,0,1-64,752.07a1.54,1.54,0,0,1-1.54-1.54A1.54,1.54,0,0,1-64,749,1.54,1.54,0,0,1-62.43,750.53Z" transform="translate(95.45 -721.56)"/><path id="Trazado_25" data-name="Trazado 25" class="cls-5" d="M-70.34,755.45l1-1.07a.67.67,0,0,0,0-.94.66.66,0,0,0-.45-.17h-1.9a.68.68,0,0,0-.67.66.66.66,0,0,0,.17.45l1,1.07a.68.68,0,0,0,.94.06Z" transform="translate(95.45 -721.56)"/></g></g></svg>