<svg id="Capa_1" data-name="Capa 1" xmlns="http://www.w3.org/2000/svg" viewBox="0 0 50 50"><defs><style>.cls-1{fill:#11eacf;opacity:0.4;}.cls-1,.cls-4{isolation:isolate;}.cls-2{fill:#160041;}.cls-3{fill:#6e8bff;}.cls-4{fill:#2c445e;opacity:0.69;}</style></defs><title>21 Avatar panda 1</title><g id="Grupo_54" data-name="Grupo 54"><path id="Trazado_91" data-name="Trazado 91" class="cls-1" d="M-60.28,715.59a25,25,0,0,1,25,25,25,25,0,0,1-25,25,25,25,0,0,1-25-25A25,25,0,0,1-60.28,715.59Z" transform="translate(85.28 -715.59)"/><g id="Avatar_Oso_Panda" data-name="Avatar Oso Panda"><ellipse id="Elipse_1" data-name="Elipse 1" class="cls-2" cx="13.48" cy="19.36" rx="4.86" ry="4.66"/><ellipse id="Elipse_2" data-name="Elipse 2" class="cls-2" cx="36.52" cy="19.36" rx="4.86" ry="4.66"/><ellipse id="Elipse_3" data-name="Elipse 3" class="cls-3" cx="25" cy="27.55" rx="13.63" ry="12.01"/><path id="Trazado_26" data-name="Trazado 26" class="cls-2" d="M-59.78,749.48l1-1.07a.66.66,0,0,0-.06-.94.66.66,0,0,0-.44-.17h-1.9a.66.66,0,0,0-.67.66.68.68,0,0,0,.17.45l.95,1.07a.67.67,0,0,0,.94.06Z" transform="translate(85.28 -715.59)"/><path id="Trazado_27" data-name="Trazado 27" class="cls-4" d="M-64.83,744.58a2.37,2.37,0,0,1-.1.7l-.09.23-1.17,3h0A2.32,2.32,0,0,1-68.34,750a2.35,2.35,0,0,1-2.35-2.34h0a2.33,2.33,0,0,1,.18-.9v0l1.06-2.7h0a2.34,2.34,0,0,1,2.27-1.77,2.34,2.34,0,0,1,2.34,2.34Z" transform="translate(85.28 -715.59)"/><circle id="Elipse_4" data-name="Elipse 4" class="cls-2" cx="18.14" cy="28.97" r="1.54"/><path id="Trazado_28" data-name="Trazado 28" class="cls-4" d="M-55.74,744.58a2.75,2.75,0,0,0,.1.7l.09.23,1.17,3h0A2.35,2.35,0,0,0-52.22,750a2.34,2.34,0,0,0,2.34-2.34h0a2.33,2.33,0,0,0-.18-.9v0l-1.06-2.7h0a2.34,2.34,0,0,0-2.27-1.77,2.35,2.35,0,0,0-2.35,2.34Z" transform="translate(85.28 -715.59)"/><circle id="Elipse_5" data-name="Elipse 5" class="cls-2" cx="31.86" cy="28.97" r="1.54"/></g></g></svg>