<svg id="Capa_1" data-name="Capa 1" xmlns="http://www.w3.org/2000/svg" viewBox="0 0 50 50"><defs><style>.cls-1{fill:#2c445e;}.cls-2{fill:#11eacf;}.cls-3{fill:#160041;}</style></defs><title>22 Avatar pollo 1</title><g id="Grupo_55" data-name="Grupo 55"><circle id="Elipse_11" data-name="Elipse 11" class="cls-1" cx="25" cy="25" r="25"/><g id="Avatar_Pollo" data-name="Avatar Pollo"><path id="Trazado_47" data-name="Trazado 47" class="cls-2" d="M-21.2,751.37c0,6.39-5.88,11.57-13.13,11.57s-13.12-5.18-13.12-11.57,5.87-11.57,13.12-11.57h0a7.53,7.53,0,0,1,3-1.7c.49-.07.72.61.72.61a6.29,6.29,0,0,1,.29,1.66C-25,741.87-21.2,746.23-21.2,751.37Z" transform="translate(59.36 -723.4)"/><circle id="Elipse_6" data-name="Elipse 6" class="cls-3" cx="18.43" cy="29.34" r="1.49"/><circle id="Elipse_7" data-name="Elipse 7" class="cls-3" cx="31.64" cy="29.34" r="1.49"/><ellipse id="Elipse_8" data-name="Elipse 8" class="cls-3" cx="25.03" cy="34.38" rx="2.24" ry="1.43"/><path id="Trazado_48" data-name="Trazado 48" class="cls-1" d="M-29.88,757.15c0,.67-2,1.21-4.45,1.21s-4.44-.54-4.44-1.21,2-1.76,4.44-1.76S-29.88,756.48-29.88,757.15Z" transform="translate(59.36 -723.4)"/></g></g></svg>