<svg id="Capa_1" data-name="Capa 1" xmlns="http://www.w3.org/2000/svg" viewBox="0 0 64 48.57"><defs><style>.cls-1,.cls-2{fill:#fff;}.cls-1{opacity:0.56;isolation:isolate;}.cls-3{fill:#21f9da;}.cls-4{fill:#160041;}.cls-5{fill:#00c7aa;}</style></defs><title>23 Avatar oso 2</title><g id="Avatar_Oso" data-name="Avatar Oso"><path id="Trazado_15" data-name="Trazado 15" class="cls-1" d="M-72,750.86a3,3,0,0,1-3,3,3,3,0,0,1-3-3,3,3,0,0,1,3-3A3,3,0,0,1-72,750.86Z" transform="translate(93.58 -722.97)"/><path id="Trazado_16" data-name="Trazado 16" class="cls-2" d="M-78.57,730a24,24,0,0,0-7.16,8.2,5.45,5.45,0,0,1-3.07-4.85,5.6,5.6,0,0,1,5.71-5.48A5.79,5.79,0,0,1-78.57,730Z" transform="translate(93.58 -722.97)"/><path id="Trazado_17" data-name="Trazado 17" class="cls-3" d="M-78.57,730a24,24,0,0,0-7.16,8.2,5.45,5.45,0,0,1-3.07-4.85,5.6,5.6,0,0,1,5.71-5.48A5.79,5.79,0,0,1-78.57,730Z" transform="translate(93.58 -722.97)"/><path id="Trazado_18" data-name="Trazado 18" class="cls-4" d="M-72,750.86a3,3,0,0,1-3,3,3,3,0,0,1-3-3,3,3,0,0,1,3-3A3,3,0,0,1-72,750.86Z" transform="translate(93.58 -722.97)"/><path id="Trazado_19" data-name="Trazado 19" class="cls-1" d="M-45.17,750.86a3,3,0,0,1-3,3,3,3,0,0,1-3-3,3,3,0,0,1,3-3A3,3,0,0,1-45.17,750.86Z" transform="translate(93.58 -722.97)"/><path id="Trazado_20" data-name="Trazado 20" class="cls-3" d="M-51,759.62c0,4-4.73,7.28-10.56,7.28s-10.55-3.26-10.55-7.28,4.73-7.28,10.55-7.28S-51,755.6-51,759.62Z" transform="translate(93.58 -722.97)"/><path id="Trazado_21" data-name="Trazado 21" class="cls-5" d="M-29.58,732.08a9.31,9.31,0,0,0-9.5-9.11,9.53,9.53,0,0,0-8.54,5.13,29.07,29.07,0,0,0-14-3.48,29.07,29.07,0,0,0-14,3.48A9.53,9.53,0,0,0-84.08,723a9.31,9.31,0,0,0-9.5,9.11,9.17,9.17,0,0,0,6.69,8.7,21.09,21.09,0,0,0-1.32,7.3c0,13,11.92,23.46,26.63,23.46S-35,761-35,748.08a20.86,20.86,0,0,0-1.32-7.3A9.16,9.16,0,0,0-29.58,732.08Zm-56.15,6.13a5.43,5.43,0,0,1-3.07-4.85,5.6,5.6,0,0,1,5.71-5.47A5.79,5.79,0,0,1-78.57,730a24.1,24.1,0,0,0-7.16,8.19ZM-75,753.87a3,3,0,0,1-3-3,3,3,0,0,1,3-3,3,3,0,0,1,3,3,3,3,0,0,1-3,3Zm13.39,13c-5.82,0-10.55-3.26-10.55-7.28s4.73-7.27,10.55-7.27S-51,755.61-51,759.62s-4.73,7.28-10.56,7.28Zm13.4-13a3,3,0,0,1-3-3,3,3,0,0,1,3-3,3,3,0,0,1,3,3,3,3,0,0,1-3,3Zm10.76-15.66a24.22,24.22,0,0,0-7.16-8.2,5.77,5.77,0,0,1,4.51-2.12,5.6,5.6,0,0,1,5.71,5.48,5.41,5.41,0,0,1-3.06,4.84Z" transform="translate(93.58 -722.97)"/><path id="Trazado_22" data-name="Trazado 22" class="cls-2" d="M-34.36,733.37a5.4,5.4,0,0,1-3.06,4.84,24.22,24.22,0,0,0-7.16-8.2,5.77,5.77,0,0,1,4.51-2.12A5.6,5.6,0,0,1-34.36,733.37Z" transform="translate(93.58 -722.97)"/><path id="Trazado_23" data-name="Trazado 23" class="cls-3" d="M-34.36,733.37a5.4,5.4,0,0,1-3.06,4.84,24.22,24.22,0,0,0-7.16-8.2,5.77,5.77,0,0,1,4.51-2.12A5.6,5.6,0,0,1-34.36,733.37Z" transform="translate(93.58 -722.97)"/><path id="Trazado_24" data-name="Trazado 24" class="cls-4" d="M-45.17,750.86a3,3,0,0,1-3,3,3,3,0,0,1-3-3,3,3,0,0,1,3-3A3,3,0,0,1-45.17,750.86Z" transform="translate(93.58 -722.97)"/><path id="Trazado_25" data-name="Trazado 25" class="cls-4" d="M-60.61,760.46l1.86-2.09a1.31,1.31,0,0,0-.11-1.83,1.3,1.3,0,0,0-.86-.33h-3.71a1.31,1.31,0,0,0-1.3,1.31,1.28,1.28,0,0,0,.33.85l1.85,2.09a1.31,1.31,0,0,0,1.84.1Z" transform="translate(93.58 -722.97)"/></g></svg>