<svg id="Capa_1" data-name="Capa 1" xmlns="http://www.w3.org/2000/svg" viewBox="0 0 64 48.57"><defs><style>.cls-1{fill:#160041;}.cls-2{fill:#6e8bff;}.cls-3{fill:#2c445e;opacity:0.69;isolation:isolate;}</style></defs><title>24 Avatar panda 2</title><ellipse id="Elipse_1" data-name="Elipse 1" class="cls-1" cx="9.5" cy="9.11" rx="9.5" ry="9.11"/><ellipse id="Elipse_2" data-name="Elipse 2" class="cls-1" cx="54.5" cy="9.11" rx="9.5" ry="9.11"/><ellipse id="Elipse_3" data-name="Elipse 3" class="cls-2" cx="32" cy="25.11" rx="26.62" ry="23.46"/><path id="Trazado_26" data-name="Trazado 26" class="cls-1" d="M-52,759.2l1.86-2.08a1.3,1.3,0,0,0-.11-1.84,1.29,1.29,0,0,0-.86-.32h-3.71a1.3,1.3,0,0,0-1.3,1.3,1.3,1.3,0,0,0,.33.86l1.86,2.08a1.3,1.3,0,0,0,1.83.11Z" transform="translate(84.97 -721.71)"/><path id="Trazado_27" data-name="Trazado 27" class="cls-3" d="M-61.85,749.65A4.81,4.81,0,0,1-62,751l-.17.45-2.29,5.9h0a4.56,4.56,0,0,1-4.21,2.79,4.58,4.58,0,0,1-4.58-4.58h0a4.59,4.59,0,0,1,.35-1.75l0,0,2.07-5.27h0a4.57,4.57,0,0,1,4.43-3.46,4.58,4.58,0,0,1,4.57,4.57Z" transform="translate(84.97 -721.71)"/><circle id="Elipse_4" data-name="Elipse 4" class="cls-1" cx="18.61" cy="27.89" r="3.01"/><path id="Trazado_28" data-name="Trazado 28" class="cls-3" d="M-44.09,749.65a4.81,4.81,0,0,0,.2,1.36l.17.45,2.29,5.9h0a4.58,4.58,0,0,0,4.21,2.79,4.58,4.58,0,0,0,4.58-4.58h0a4.59,4.59,0,0,0-.35-1.75v0l-2.08-5.27h0a4.58,4.58,0,0,0-4.44-3.46,4.58,4.58,0,0,0-4.57,4.57Z" transform="translate(84.97 -721.71)"/><circle id="Elipse_5" data-name="Elipse 5" class="cls-1" cx="45.39" cy="27.89" r="3.01"/></svg>