<svg id="Capa_1" data-name="Capa 1" xmlns="http://www.w3.org/2000/svg" viewBox="0 0 51.32 48.58"><defs><style>.cls-1{fill:#11eacf;}.cls-2{fill:#160041;}.cls-3{fill:#2c445e;}</style></defs><title>25 Avatar pollo 2</title><g id="Avatar_Pollo" data-name="Avatar Pollo"><path id="Trazado_47" data-name="Trazado 47" class="cls-1" d="M-8.7,750.14c0,12.49-11.49,22.61-25.66,22.61S-60,762.63-60,750.14s11.49-22.62,25.66-22.62h0c3.58-2.94,5.92-3.33,5.92-3.33,1-.14,1.4,1.18,1.4,1.18a12.81,12.81,0,0,1,.57,3.25C-16.14,731.57-8.7,740.08-8.7,750.14Z" transform="translate(60.02 -724.18)"/><circle id="Elipse_6" data-name="Elipse 6" class="cls-2" cx="12.75" cy="28.63" r="2.91"/><circle id="Elipse_7" data-name="Elipse 7" class="cls-2" cx="38.58" cy="28.63" r="2.91"/><ellipse id="Elipse_8" data-name="Elipse 8" class="cls-2" cx="25.67" cy="38.49" rx="4.39" ry="2.8"/><path id="Trazado_48" data-name="Trazado 48" class="cls-3" d="M-25.66,761.43c0,1.31-3.89,2.37-8.7,2.37s-8.7-1.06-8.7-2.37,3.89-3.44,8.7-3.44S-25.66,760.12-25.66,761.43Z" transform="translate(60.02 -724.18)"/></g></svg>