<svg id="Capa_1" data-name="Capa 1" xmlns="http://www.w3.org/2000/svg" viewBox="0 0 31.52 23.93"><defs><style>.cls-1,.cls-2{fill:#fff;}.cls-1{opacity:0.56;isolation:isolate;}.cls-3{fill:#d5d5d5;}.cls-4{fill:#232323;}.cls-5{fill:#fbfbfb;}.cls-6{fill:#999;}</style></defs><title>26 Avatar oso 3</title><path id="Trazado_222" data-name="Trazado 222" class="cls-1" d="M-39.47,750.2A1.49,1.49,0,0,1-41,751.68a1.48,1.48,0,0,1-1.48-1.48A1.49,1.49,0,0,1-41,748.71,1.49,1.49,0,0,1-39.47,750.2Z" transform="translate(50.12 -736.46)"/><path id="Trazado_223" data-name="Trazado 223" class="cls-2" d="M-42.73,739.93a11.93,11.93,0,0,0-3.53,4,2.69,2.69,0,0,1-1.51-2.39A2.75,2.75,0,0,1-45,738.89,2.86,2.86,0,0,1-42.73,739.93Z" transform="translate(50.12 -736.46)"/><path id="Trazado_224" data-name="Trazado 224" class="cls-3" d="M-42.73,739.93a11.93,11.93,0,0,0-3.53,4,2.69,2.69,0,0,1-1.51-2.39A2.75,2.75,0,0,1-45,738.89,2.86,2.86,0,0,1-42.73,739.93Z" transform="translate(50.12 -736.46)"/><path id="Trazado_225" data-name="Trazado 225" class="cls-4" d="M-39.47,750.2A1.49,1.49,0,0,1-41,751.68a1.48,1.48,0,0,1-1.48-1.48A1.49,1.49,0,0,1-41,748.71,1.49,1.49,0,0,1-39.47,750.2Z" transform="translate(50.12 -736.46)"/><path id="Trazado_226" data-name="Trazado 226" class="cls-1" d="M-26.28,750.2a1.48,1.48,0,0,1-1.48,1.48,1.49,1.49,0,0,1-1.49-1.48,1.49,1.49,0,0,1,1.49-1.49A1.49,1.49,0,0,1-26.28,750.2Z" transform="translate(50.12 -736.46)"/><path id="Trazado_227" data-name="Trazado 227" class="cls-5" d="M-29.16,754.51c0,2-2.33,3.59-5.2,3.59s-5.2-1.61-5.2-3.59,2.32-3.58,5.2-3.58S-29.16,752.54-29.16,754.51Z" transform="translate(50.12 -736.46)"/><path id="Trazado_228" data-name="Trazado 228" class="cls-6" d="M-18.6,741a4.59,4.59,0,0,0-4.68-4.49A4.72,4.72,0,0,0-27.49,739a14.32,14.32,0,0,0-6.87-1.72A14.32,14.32,0,0,0-41.23,739a4.72,4.72,0,0,0-4.21-2.53A4.59,4.59,0,0,0-50.12,741a4.5,4.5,0,0,0,3.3,4.28,10.36,10.36,0,0,0-.65,3.6c0,6.39,5.87,11.56,13.11,11.56s13.11-5.17,13.11-11.56a10.35,10.35,0,0,0-.64-3.6A4.52,4.52,0,0,0-18.6,741Zm-27.66,3a2.69,2.69,0,0,1-1.51-2.39,2.76,2.76,0,0,1,2.82-2.69,2.84,2.84,0,0,1,2.22,1A11.93,11.93,0,0,0-46.26,744Zm5.3,7.71a1.48,1.48,0,0,1-1.48-1.48A1.49,1.49,0,0,1-41,748.71a1.49,1.49,0,0,1,1.49,1.49A1.49,1.49,0,0,1-41,751.68Zm6.6,6.42c-2.87,0-5.2-1.61-5.2-3.59s2.33-3.58,5.2-3.58,5.2,1.61,5.2,3.58-2.33,3.59-5.2,3.59Zm6.6-6.42a1.48,1.48,0,0,1-1.48-1.48,1.49,1.49,0,0,1,1.48-1.49,1.49,1.49,0,0,1,1.49,1.49,1.49,1.49,0,0,1-1.49,1.48Zm5.3-7.71a11.9,11.9,0,0,0-3.52-4,2.84,2.84,0,0,1,2.22-1,2.75,2.75,0,0,1,2.81,2.7A2.69,2.69,0,0,1-22.46,744Z" transform="translate(50.12 -736.46)"/><path id="Trazado_229" data-name="Trazado 229" class="cls-2" d="M-21,741.58A2.67,2.67,0,0,1-22.47,744a11.9,11.9,0,0,0-3.52-4,2.84,2.84,0,0,1,2.22-1A2.74,2.74,0,0,1-21,741.58Z" transform="translate(50.12 -736.46)"/><path id="Trazado_230" data-name="Trazado 230" class="cls-3" d="M-21,741.58A2.67,2.67,0,0,1-22.47,744a11.9,11.9,0,0,0-3.52-4,2.84,2.84,0,0,1,2.22-1A2.74,2.74,0,0,1-21,741.58Z" transform="translate(50.12 -736.46)"/><path id="Trazado_231" data-name="Trazado 231" class="cls-4" d="M-26.28,750.2a1.48,1.48,0,0,1-1.48,1.48,1.49,1.49,0,0,1-1.49-1.48,1.49,1.49,0,0,1,1.49-1.49A1.49,1.49,0,0,1-26.28,750.2Z" transform="translate(50.12 -736.46)"/><path id="Trazado_232" data-name="Trazado 232" class="cls-4" d="M-33.88,754.93l.91-1A.63.63,0,0,0-33,753a.61.61,0,0,0-.42-.16h-1.83a.63.63,0,0,0-.64.63.62.62,0,0,0,.16.43l.91,1a.66.66,0,0,0,.91.05Z" transform="translate(50.12 -736.46)"/></svg>