<svg id="Capa_1" data-name="Capa 1" xmlns="http://www.w3.org/2000/svg" viewBox="0 0 32.77 24.87"><defs><style>.cls-1{fill:#dbdbdb;}.cls-2{fill:#9f9f9f;}</style></defs><title>27 Avatar panda 3</title><ellipse id="Elipse_27" data-name="Elipse 27" cx="4.86" cy="4.66" rx="4.86" ry="4.66"/><ellipse id="Elipse_28" data-name="Elipse 28" cx="27.9" cy="4.66" rx="4.86" ry="4.66"/><ellipse id="Elipse_29" data-name="Elipse 29" class="cls-1" cx="16.38" cy="12.86" rx="13.63" ry="12.01"/><path id="Trazado_88" data-name="Trazado 88" d="M-33.86,755.16l1-1.07a.65.65,0,0,0-.06-.93.66.66,0,0,0-.44-.17h-1.9a.66.66,0,0,0-.67.66.66.66,0,0,0,.17.44l1,1.07a.66.66,0,0,0,.94.06Z" transform="translate(50.74 -735.97)"/><path id="Trazado_89" data-name="Trazado 89" class="cls-2" d="M-38.91,750.27a2.42,2.42,0,0,1-.1.7l-.09.23-1.17,3h0a2.32,2.32,0,0,1-2.15,1.43,2.35,2.35,0,0,1-2.35-2.34,2.3,2.3,0,0,1,.18-.9v0l1.06-2.7h0a2.34,2.34,0,0,1,2.27-1.77,2.34,2.34,0,0,1,2.34,2.34Z" transform="translate(50.74 -735.97)"/><circle id="Elipse_30" data-name="Elipse 30" cx="9.53" cy="14.28" r="1.54"/><path id="Trazado_90" data-name="Trazado 90" class="cls-2" d="M-29.82,750.27a2.82,2.82,0,0,0,.1.7l.09.23,1.17,3h0a2.35,2.35,0,0,0,2.16,1.43A2.34,2.34,0,0,0-24,753.31a2.3,2.3,0,0,0-.18-.9v0l-1.06-2.7h0a2.34,2.34,0,0,0-2.27-1.77,2.35,2.35,0,0,0-2.35,2.34Z" transform="translate(50.74 -735.97)"/><circle id="Elipse_31" data-name="Elipse 31" cx="23.24" cy="14.28" r="1.54"/></svg>