<svg id="Capa_1" data-name="Capa 1" xmlns="http://www.w3.org/2000/svg" viewBox="0 0 26.15 24.75"><defs><style>.cls-1{fill:#dbdbdb;}.cls-2{fill:#232323;}.cls-3{fill:#8b8b8b;}.cls-4{fill:#a6a6a6;}</style></defs><title>28 Avatar pollo 3</title><g id="Grupo_210" data-name="Grupo 210"><path id="Trazado_68" data-name="Trazado 68" class="cls-1" d="M-21.28,749.29c0,6.36-5.86,11.52-13.08,11.52s-13.08-5.16-13.08-11.52,5.86-11.53,13.08-11.53h0a7.49,7.49,0,0,1,3-1.7c.49-.07.71.6.71.6a6.22,6.22,0,0,1,.29,1.66C-25.08,739.82-21.28,744.16-21.28,749.29Z" transform="translate(47.44 -736.06)"/><circle id="Elipse_24" data-name="Elipse 24" class="cls-2" cx="6.5" cy="14.59" r="1.48"/><circle id="Elipse_25" data-name="Elipse 25" class="cls-2" cx="19.65" cy="14.59" r="1.48"/><ellipse id="Elipse_26" data-name="Elipse 26" class="cls-3" cx="13.08" cy="19.61" rx="2.24" ry="1.43"/><path id="Trazado_69" data-name="Trazado 69" class="cls-4" d="M-29.93,755c0,.67-2,1.21-4.43,1.21s-4.43-.54-4.43-1.21,2-1.75,4.43-1.75S-29.93,754.37-29.93,755Z" transform="translate(47.44 -736.06)"/></g></svg>