<svg id="Capa_1" data-name="Capa 1" xmlns="http://www.w3.org/2000/svg" viewBox="0 0 25.9 24.17"><defs><style>.cls-1{fill:#736eff;}.cls-2{fill:#fff;opacity:0.56;isolation:isolate;}.cls-3{fill:#3c1911;}.cls-4{fill:#160041;}.cls-5{fill:#2c445e;}</style></defs><title>29 Avatar gato</title><path id="Trazado_239" data-name="Trazado 239" class="cls-1" d="M-24.25,750.41h2.74a9.76,9.76,0,0,0,.09-1.32,10.07,10.07,0,0,0-.66-3.6h0a10.72,10.72,0,0,0-1.3-2.43,12,12,0,0,0-3.3-3.14A12.52,12.52,0,0,0-28.4,739a11.91,11.91,0,0,0-1.72-.65v4.6a1,1,0,0,1-1,1,1,1,0,0,1-1-1v-5.07c-.39-.06-.78-.1-1.19-.13v5.19a1,1,0,0,1-1,1,1,1,0,0,1-1-1v-5.19c-.4,0-.8.07-1.19.13v5.06a1,1,0,0,1-1,1,1,1,0,0,1-1-1v-4.6a13.84,13.84,0,0,0-1.72.66,12.06,12.06,0,0,0-1.72.95,12.28,12.28,0,0,0-3.3,3.13,11.21,11.21,0,0,0-1.3,2.44h0a10.29,10.29,0,0,0-.66,3.6,9.61,9.61,0,0,0,.09,1.31h2.75a1,1,0,0,1,1,1,1,1,0,0,1-1,1h-2.27a12.45,12.45,0,0,0,.5,1.19h1.78a1,1,0,0,1,1,1,1,1,0,0,1-1,1h-.48a13.51,13.51,0,0,0,10.59,4.84,13.54,13.54,0,0,0,10.58-4.83h-.48a1,1,0,0,1-1-1h0a1,1,0,0,1,1-1h1.77a8.31,8.31,0,0,0,.5-1.19h-2.25a1,1,0,0,1-1-1h0A1,1,0,0,1-24.25,750.41Zm-16.62,1.51a1.49,1.49,0,0,1-1.47-1.47A1.47,1.47,0,0,1-40.87,749a1.45,1.45,0,0,1,1.46,1.46h0a1.46,1.46,0,0,1-1.46,1.47Zm13,0a1.46,1.46,0,0,1-1.46-1.47h0A1.46,1.46,0,0,1-27.85,749h0a1.46,1.46,0,0,1,1.47,1.46,1.48,1.48,0,0,1-1.47,1.47Z" transform="translate(47.32 -736.34)"/><path id="Trazado_240" data-name="Trazado 240" class="cls-2" d="M-39.41,750.45a1.45,1.45,0,0,1-1.46,1.46h0a1.47,1.47,0,0,1-1.47-1.46A1.49,1.49,0,0,1-40.87,749a1.46,1.46,0,0,1,1.46,1.47Z" transform="translate(47.32 -736.34)"/><path id="Trazado_241" data-name="Trazado 241" class="cls-3" d="M-39.41,750.45a1.45,1.45,0,0,1-1.46,1.46h0a1.47,1.47,0,0,1-1.47-1.46A1.49,1.49,0,0,1-40.87,749a1.46,1.46,0,0,1,1.46,1.47Z" transform="translate(47.32 -736.34)"/><path id="Trazado_242" data-name="Trazado 242" class="cls-4" d="M-33,754.1l-.9,1a.64.64,0,0,1-.47.21.64.64,0,0,1-.47-.21l-.9-1a.63.63,0,0,1,0-.89.67.67,0,0,1,.42-.16h1.81a.63.63,0,0,1,.62.64A.57.57,0,0,1-33,754.1Z" transform="translate(47.32 -736.34)"/><path id="Trazado_243" data-name="Trazado 243" class="cls-1" d="M-46.59,745.75s-1-4.89.1-8.33c0,0,.4-1.2,1.27-1.07,0,0,2.14.35,5.42,3Z" transform="translate(47.32 -736.34)"/><path id="Trazado_244" data-name="Trazado 244" class="cls-5" d="M-45.21,743.92a10.59,10.59,0,0,1,.06-4.62s.22-.66.71-.6a7.3,7.3,0,0,1,3,1.7Z" transform="translate(47.32 -736.34)"/><path id="Trazado_245" data-name="Trazado 245" class="cls-5" d="M-26.38,750.45a1.46,1.46,0,0,1-1.47,1.46,1.46,1.46,0,0,1-1.46-1.46h0A1.46,1.46,0,0,1-27.85,749h0A1.48,1.48,0,0,1-26.38,750.45Z" transform="translate(47.32 -736.34)"/><path id="Trazado_246" data-name="Trazado 246" class="cls-4" d="M-26.38,750.45a1.46,1.46,0,0,1-1.47,1.46,1.46,1.46,0,0,1-1.46-1.46h0A1.46,1.46,0,0,1-27.85,749h0A1.48,1.48,0,0,1-26.38,750.45Z" transform="translate(47.32 -736.34)"/><path id="Trazado_247" data-name="Trazado 247" class="cls-1" d="M-22.13,745.75s1.05-4.89-.1-8.33c0,0-.4-1.2-1.27-1.07,0,0-2.14.35-5.42,3Z" transform="translate(47.32 -736.34)"/><path id="Trazado_248" data-name="Trazado 248" class="cls-5" d="M-23.52,743.92a10.44,10.44,0,0,0-.05-4.62s-.22-.66-.71-.6a7.3,7.3,0,0,0-3,1.7Z" transform="translate(47.32 -736.34)"/><path id="Trazado_249" data-name="Trazado 249" class="cls-5" d="M-33.34,737.73v5.19a1,1,0,0,1-1,1,1,1,0,0,1-1-1v-5.19c.33,0,.68,0,1,0S-33.68,737.71-33.34,737.73Z" transform="translate(47.32 -736.34)"/><path id="Trazado_250" data-name="Trazado 250" class="cls-5" d="M-36.57,737.86v5.06a1,1,0,0,1-1,1,1,1,0,0,1-1-1v-4.6A14.32,14.32,0,0,1-36.57,737.86Z" transform="translate(47.32 -736.34)"/><path id="Trazado_251" data-name="Trazado 251" class="cls-5" d="M-21.51,750.41a9.46,9.46,0,0,1-.48,2h-2.26a1,1,0,0,1-1-1h0a1,1,0,0,1,1-1h2.74Z" transform="translate(47.32 -736.34)"/><path id="Trazado_252" data-name="Trazado 252" class="cls-5" d="M-22.49,753.64a10.37,10.37,0,0,1-1.3,2h-.47a1,1,0,0,1-1-1h0a1,1,0,0,1,1-1h1.77Z" transform="translate(47.32 -736.34)"/><path id="Trazado_253" data-name="Trazado 253" class="cls-4" d="M-42.34,750.45a1.46,1.46,0,0,0,1.47,1.46,1.46,1.46,0,0,0,1.46-1.46h0A1.46,1.46,0,0,0-40.87,749h0A1.48,1.48,0,0,0-42.34,750.45Z" transform="translate(47.32 -736.34)"/><path id="Trazado_254" data-name="Trazado 254" class="cls-5" d="M-43.46,751.42a1,1,0,0,1-1,1h-2.26a10.09,10.09,0,0,1-.48-2h2.74A1,1,0,0,1-43.46,751.42Z" transform="translate(47.32 -736.34)"/><path id="Trazado_255" data-name="Trazado 255" class="cls-5" d="M-43.45,754.65a1,1,0,0,1-1,1h-.47a10.37,10.37,0,0,1-1.3-2h1.77A1,1,0,0,1-43.45,754.65Z" transform="translate(47.32 -736.34)"/><path id="Trazado_256" data-name="Trazado 256" class="cls-5" d="M-30.11,738.32v4.6a1,1,0,0,1-1,1,1,1,0,0,1-1-1v-5.06A15.83,15.83,0,0,1-30.11,738.32Z" transform="translate(47.32 -736.34)"/></svg>