<svg id="Capa_1" data-name="Capa 1" xmlns="http://www.w3.org/2000/svg" viewBox="0 0 25.88 24.18"><defs><style>.cls-1{fill:#fff;opacity:0.56;isolation:isolate;}.cls-2{fill:#160041;}.cls-3{fill:#00c7aa;}.cls-4{fill:#2c445e;}</style></defs><title>30 Avatar zorrito</title><circle id="Elipse_35" data-name="Elipse 35" class="cls-1" cx="6.43" cy="14.11" r="1.47"/><circle id="Elipse_36" data-name="Elipse 36" class="cls-2" cx="6.43" cy="14.11" r="1.47"/><path id="Trazado_233" data-name="Trazado 233" class="cls-2" d="M-33,754.07l-.51.58a5.24,5.24,0,0,0-.84.65h0a4.76,4.76,0,0,0-.83-.65l-.52-.58a.63.63,0,0,1,.05-.89.67.67,0,0,1,.43-.16h1.8a.63.63,0,0,1,.63.63A.58.58,0,0,1-33,754.07Z" transform="translate(47.3 -736.3)"/><path id="Trazado_234" data-name="Trazado 234" class="cls-3" d="M-23.57,739.27s-.22-.67-.7-.6a7.3,7.3,0,0,0-3,1.7l3.76,3.51A10.55,10.55,0,0,0-23.57,739.27Z" transform="translate(47.3 -736.3)"/><path id="Trazado_235" data-name="Trazado 235" class="cls-3" d="M-22.08,745.46c.2-1,.85-5.1-.15-8.07,0,0-.4-1.21-1.28-1.08A12.42,12.42,0,0,0-28.39,739a14.32,14.32,0,0,0-6-1.29,14.32,14.32,0,0,0-6,1.29,12.42,12.42,0,0,0-4.88-2.64c-.88-.13-1.28,1.08-1.28,1.08-1,3-.35,7-.15,8.07a10.16,10.16,0,0,0-.66,3.61,10.33,10.33,0,0,0,1,4.37,27.12,27.12,0,0,1,7.2-.08,9.79,9.79,0,0,1,3.9,1.3l-.51-.58a.64.64,0,0,1,0-.9.63.63,0,0,1,.42-.16h1.8a.64.64,0,0,1,.63.64.61.61,0,0,1-.16.42l-.51.58a9.79,9.79,0,0,1,3.9-1.3,27.12,27.12,0,0,1,7.2.08,10.33,10.33,0,0,0,1-4.37A10.16,10.16,0,0,0-22.08,745.46Zm-23.07-6.19s.22-.67.71-.6A6.54,6.54,0,0,1-42,739.89c.19.14.4.3.61.48l-3.77,3.51s-.07-.33-.13-.85a9.18,9.18,0,0,1,.19-3.76Zm4.28,12.61a1.47,1.47,0,0,1-1.47-1.46A1.47,1.47,0,0,1-40.87,749h0a1.46,1.46,0,0,1,1.46,1.46h0a1.46,1.46,0,0,1-1.46,1.46Zm13,0a1.46,1.46,0,0,1-1.46-1.46h0A1.46,1.46,0,0,1-27.85,749h0a1.47,1.47,0,0,1,1.47,1.47h0a1.47,1.47,0,0,1-1.47,1.46Zm4.34-8-3.77-3.51a7.3,7.3,0,0,1,3-1.7c.49-.07.71.6.71.6a10.59,10.59,0,0,1,.06,4.62Z" transform="translate(47.3 -736.3)"/><path id="Trazado_236" data-name="Trazado 236" class="cls-2" d="M-41.44,740.37l-3.77,3.52s-.07-.34-.13-.85a9.22,9.22,0,0,1,.19-3.77s.22-.67.71-.6A6.61,6.61,0,0,1-42,739.89Z" transform="translate(47.3 -736.3)"/><path id="Trazado_237" data-name="Trazado 237" class="cls-4" d="M-22.4,753.44a13.08,13.08,0,0,1-12,7,13.07,13.07,0,0,1-12-7,27.55,27.55,0,0,1,7.2-.08,10,10,0,0,1,3.9,1.3,4.71,4.71,0,0,1,.83.64l0,0a0,0,0,0,0,0,0,5.18,5.18,0,0,1,.84-.64,10,10,0,0,1,3.9-1.3A27.55,27.55,0,0,1-22.4,753.44Z" transform="translate(47.3 -736.3)"/><circle id="Elipse_37" data-name="Elipse 37" class="cls-1" cx="19.45" cy="14.11" r="1.47"/><circle id="Elipse_38" data-name="Elipse 38" class="cls-2" cx="19.45" cy="14.11" r="1.47"/><path id="Trazado_238" data-name="Trazado 238" class="cls-2" d="M-23.51,743.88l-3.77-3.51a7.3,7.3,0,0,1,3-1.7c.49-.07.71.6.71.6A10.55,10.55,0,0,1-23.51,743.88Z" transform="translate(47.3 -736.3)"/></svg>