<svg id="Capa_1" data-name="Capa 1" xmlns="http://www.w3.org/2000/svg" viewBox="0 0 25.88 18.48"><defs><style>.cls-1{fill:#11eacf;}.cls-2{fill:#00c7aa;}.cls-3{fill:#ebedef;isolation:isolate;}.cls-4{fill:#2c445e;}.cls-5{fill:#736eff;}.cls-6{fill:#160041;}</style></defs><title>31 Tarjeta</title><path class="cls-1" d="M-33.18,739.42l-2.69,1.9h-3.08a.87.87,0,0,0-.87.87v1.93l-17.92,12.69a2.06,2.06,0,0,1-.65-1.5V740.94a2.05,2.05,0,0,1,2-2.06h21.77A2.08,2.08,0,0,1-33.18,739.42Z" transform="translate(58.39 -738.88)"/><path class="cls-2" d="M-33.18,739.42l-2.69,1.9h.09a.87.87,0,0,1,.88.87v3.18a.87.87,0,0,1-.88.87h-3.17a.87.87,0,0,1-.87-.87v-1.25l-17.92,12.69a2,2,0,0,0,1.4.55h21.77a2.05,2.05,0,0,0,2.06-2.05V740.94A2.07,2.07,0,0,0-33.18,739.42Zm-1,15.47a.87.87,0,0,1-.87.87h-7.08a.87.87,0,0,1-.87-.87v-4.65a.87.87,0,0,1,.87-.87h7.08a.87.87,0,0,1,.87.87Z" transform="translate(58.39 -738.88)"/><path class="cls-3" d="M-35.08,749.37h-7.08a.87.87,0,0,0-.87.87v4.65a.87.87,0,0,0,.87.87h7.08a.87.87,0,0,0,.87-.87v-4.65A.87.87,0,0,0-35.08,749.37Zm-2.28,5.57a2.28,2.28,0,0,1-1.19-.32,2.31,2.31,0,0,1-1.19.32,2.38,2.38,0,0,1-2.38-2.37,2.38,2.38,0,0,1,2.38-2.38,2.31,2.31,0,0,1,1.19.32,2.28,2.28,0,0,1,1.19-.32A2.38,2.38,0,0,1-35,752.57,2.38,2.38,0,0,1-37.36,754.94Z" transform="translate(58.39 -738.88)"/><path class="cls-4" d="M-38.55,754.62a2.31,2.31,0,0,1-1.19.32,2.38,2.38,0,0,1-2.38-2.37,2.38,2.38,0,0,1,2.38-2.38,2.31,2.31,0,0,1,1.19.32,2.38,2.38,0,0,0-1.19,2.06A2.37,2.37,0,0,0-38.55,754.62Z" transform="translate(58.39 -738.88)"/><path class="cls-5" d="M-35,752.57a2.38,2.38,0,0,1-2.38,2.37,2.28,2.28,0,0,1-1.19-.32,2.37,2.37,0,0,1-1.19-2,2.38,2.38,0,0,1,1.19-2.06,2.28,2.28,0,0,1,1.19-.32A2.38,2.38,0,0,1-35,752.57Z" transform="translate(58.39 -738.88)"/><rect class="cls-6" x="18.57" y="2.44" width="4.92" height="4.92" rx="0.87"/></svg>