<svg id="Capa_1" data-name="Capa 1" xmlns="http://www.w3.org/2000/svg" viewBox="0 0 48.78 48.78"><defs><style>.cls-1{fill:#fff;}</style></defs><title>32 Suscripciones</title><g id="Grupo_84" data-name="Grupo 84"><path id="Trazado_62" data-name="Trazado 62" class="cls-1" d="M-54.46,726.56A24.39,24.39,0,0,0-78.85,751a24.39,24.39,0,0,0,24.39,24.39A24.39,24.39,0,0,0-30.07,751h0A24.43,24.43,0,0,0-54.46,726.56Zm0,45.15A20.76,20.76,0,0,1-75.22,751a20.77,20.77,0,0,1,20.76-20.76A20.77,20.77,0,0,1-33.7,751h0a20.78,20.78,0,0,1-20.76,20.76Z" transform="translate(78.85 -726.56)"/><g id="Grupo_83" data-name="Grupo 83"><path id="Trazado_98" data-name="Trazado 98" class="cls-1" d="M-48.48,753.77a.08.08,0,0,0,0,.09l1.2,5.42a1.57,1.57,0,0,1-1.19,1.88,1.55,1.55,0,0,1-1.15-.18l-4.78-2.8a.09.09,0,0,0-.1,0l-4.78,2.8a1.58,1.58,0,0,1-2.16-.56,1.6,1.6,0,0,1-.18-1.13l1.2-5.43a.14.14,0,0,0,0-.09l-4.15-3.69a1.58,1.58,0,0,1-.13-2.23,1.63,1.63,0,0,1,1-.52l5.53-.55a.09.09,0,0,0,.08-.06l2.23-5.08a1.57,1.57,0,0,1,2.07-.81,1.56,1.56,0,0,1,.81.81l2.24,5.08a.07.07,0,0,0,.07.06l5.53.55a1.58,1.58,0,0,1,1.41,1.73,1.6,1.6,0,0,1-.52,1Z" transform="translate(78.85 -726.56)"/></g></g></svg>