<svg id="Capa_1" data-name="Capa 1" xmlns="http://www.w3.org/2000/svg" viewBox="0 0 48.78 48.78"><defs><style>.cls-1{fill:#fff;}</style></defs><title>33 Ropa</title><g id="Grupo_250" data-name="Grupo 250"><g id="Grupo_232" data-name="Grupo 232"><path id="Trazado_62" data-name="Trazado 62" class="cls-1" d="M-34.46,726.56A24.39,24.39,0,0,0-58.85,751a24.39,24.39,0,0,0,24.39,24.39A24.39,24.39,0,0,0-10.07,751h0A24.43,24.43,0,0,0-34.46,726.56Zm0,45.15A20.76,20.76,0,0,1-55.22,751a20.77,20.77,0,0,1,20.76-20.76A20.77,20.77,0,0,1-13.7,751h0a20.78,20.78,0,0,1-20.76,20.76Z" transform="translate(58.85 -726.56)"/></g><g id="Grupo_249" data-name="Grupo 249"><path id="Trazado_259" data-name="Trazado 259" class="cls-1" d="M-35.26,741.08l-.6.18a3,3,0,0,0-1.62,1.44,2.52,2.52,0,0,0-.34,1.37A1,1,0,0,0-37,745a.78.78,0,0,0,.83-.6c0-.12,0-.23,0-.35a1.34,1.34,0,0,1,1.46-1.21,1,1,0,0,1,.24.05,1.28,1.28,0,0,1,1,1.15,1.4,1.4,0,0,1-.83,1.46A1.89,1.89,0,0,0-35.43,747a8,8,0,0,0,0,1,.3.3,0,0,1-.17.29L-38,749.69l-1.82,1.09-3.59,2.14-2.33,1.38a2.14,2.14,0,0,0-1,1.35c0,.05,0,.1,0,.15v1a2.77,2.77,0,0,0,.22.67,2.31,2.31,0,0,0,2.2,1.29h19.88a2.2,2.2,0,0,0,1.69-.84,2.26,2.26,0,0,0,.52-1.09v-.87c-.05-.15-.09-.29-.13-.43a2.08,2.08,0,0,0-.9-1.16l-1.36-.8-3.16-1.88-2.71-1.59c-1-.56-1.89-1.13-2.84-1.68-.3-.16-.46-.34-.39-.69v0a.72.72,0,0,1,.34-.71l.26-.18a3.43,3.43,0,0,0,1-.82,2.94,2.94,0,0,0,.35-2.9,3.29,3.29,0,0,0-1.21-1.57,3.18,3.18,0,0,0-1.08-.43ZM-43.94,757a2.33,2.33,0,0,1-.53,0,.67.67,0,0,1-.51-.8.69.69,0,0,1,0-.13.77.77,0,0,1,.33-.34l2.63-1.54,2.33-1.38,2.36-1.38,2.57-1.53a.24.24,0,0,1,.28,0c.45.27.9.54,1.36.8l2.36,1.4,3.06,1.79,3.07,1.81a1.24,1.24,0,0,1,.35.25.61.61,0,0,1,.06.68.68.68,0,0,1-.65.41H-43.94Z" transform="translate(58.85 -726.56)"/></g></g></svg>