<svg id="Capa_1" data-name="Capa 1" xmlns="http://www.w3.org/2000/svg" viewBox="0 0 48.24 48.24"><defs><style>.cls-1{fill:#fff;}</style></defs><title>34 Belleza</title><g id="Grupo_252" data-name="Grupo 252"><g id="Grupo_232" data-name="Grupo 232"><path id="Trazado_62" data-name="Trazado 62" class="cls-1" d="M-54.46,726.83A24.12,24.12,0,0,0-78.58,751a24.12,24.12,0,0,0,24.12,24.12A24.12,24.12,0,0,0-30.34,751h0A24.16,24.16,0,0,0-54.46,726.83Zm0,44.65A20.53,20.53,0,0,1-75,751a20.53,20.53,0,0,1,20.53-20.53A20.53,20.53,0,0,1-33.93,751h0a20.55,20.55,0,0,1-20.53,20.53Z" transform="translate(78.58 -726.83)"/></g><g id="Grupo_251" data-name="Grupo 251"><path id="Trazado_260" data-name="Trazado 260" class="cls-1" d="M-59.64,742.82a5.26,5.26,0,0,1,3.92,2.46c.32.47.43.41.73,0a5.58,5.58,0,0,1,7.77-1.48,5.57,5.57,0,0,1,2.29,3.32,6.72,6.72,0,0,1-1.15,5.34,23.43,23.43,0,0,1-5,5.62,45.44,45.44,0,0,1-3.73,2.86.71.71,0,0,1-.93.06,33.42,33.42,0,0,1-8.09-7.37,8.66,8.66,0,0,1-2.06-5.49,5.75,5.75,0,0,1,6.17-5.32Z" transform="translate(78.58 -726.83)"/></g></g></svg>