<svg id="Capa_1" data-name="Capa 1" xmlns="http://www.w3.org/2000/svg" viewBox="0 0 48.24 48.24"><defs><style>.cls-1{fill:#fff;}.cls-2{fill:none;stroke:#fff;stroke-miterlimit:10;}</style></defs><title>35 Salud</title><g id="Grupo_248" data-name="Grupo 248"><g id="Grupo_243" data-name="Grupo 243"><g id="Trazado_62" data-name="Trazado 62"><path class="cls-1" d="M-54.46,726.83A24.12,24.12,0,0,0-78.58,751a24.12,24.12,0,0,0,24.12,24.12A24.12,24.12,0,0,0-30.34,751h0A24.16,24.16,0,0,0-54.46,726.83Zm0,44.65A20.53,20.53,0,0,1-75,751a20.53,20.53,0,0,1,20.53-20.53A20.53,20.53,0,0,1-33.93,751h0a20.55,20.55,0,0,1-20.53,20.53Z" transform="translate(78.58 -726.83)"/></g></g><g id="Rectángulo_565" data-name="Rectángulo 565"><path class="cls-2" d="M-61.59,739.81h0a7.09,7.09,0,0,1,9.69,2.59L-46,752.64a7.09,7.09,0,0,1-2.6,9.69h0a7.09,7.09,0,0,1-9.69-2.59l-5.91-10.24A7.08,7.08,0,0,1-61.59,739.81Z" transform="translate(78.58 -726.83)"/><path class="cls-1" d="M-52.12,763.26A7.15,7.15,0,0,1-54,763a7,7,0,0,1-4.3-3.3l-5.91-10.24a7.07,7.07,0,0,1,2.59-9.65h0a7.08,7.08,0,0,1,9.66,2.58L-46,752.65a7,7,0,0,1,.7,5.37,7,7,0,0,1-3.29,4.29A7,7,0,0,1-52.12,763.26Zm-7.71-20.4a3.57,3.57,0,0,0-1.31,4.87L-55.23,758a3.57,3.57,0,0,0,2.17,1.67,3.57,3.57,0,0,0,2.71-.36,3.52,3.52,0,0,0,1.66-2.17A3.57,3.57,0,0,0-49,754.4l-5.91-10.24a3.59,3.59,0,0,0-4.88-1.3Z" transform="translate(78.58 -726.83)"/></g><g id="Trazado_258" data-name="Trazado 258"><path class="cls-1" d="M-49.47,760.8c-2.55,1.46-5.67.82-7-1.43l-2.09-3.62c.17-.56,1.47-2.09,4.07-3.59s4.57-1.86,5.14-1.73l2.09,3.62C-45.93,756.3-46.93,759.33-49.47,760.8Z" transform="translate(78.58 -726.83)"/><path class="cls-1" d="M-53.57,753.7a12.78,12.78,0,0,0-2.86,2.14l1.52,2.64c.81,1.41,2.85,1.76,4.55.78s2.41-2.92,1.6-4.33l-1.53-2.64a13.3,13.3,0,0,0-3.28,1.41m-1.78-3.07c3.07-1.78,6.6-2.77,7.49-1.22l2.17,3.75c1.79,3.11.49,7.21-2.9,9.17s-7.6,1-9.39-2.08l-2.17-3.75C-61,755-58.42,752.4-55.35,750.63Z" transform="translate(78.58 -726.83)"/></g></g></svg>