<svg id="Capa_1" data-name="Capa 1" xmlns="http://www.w3.org/2000/svg" viewBox="0 0 101.94 61.86"><defs><style>.cls-1{fill:#11eacf;}.cls-2{fill:#2e445b;}.cls-3{fill:#736eff;}</style></defs><title>36 Logotipo icon</title><g id="Logo_Mobill" data-name="Logo Mobill"><path id="Trazado_12" data-name="Trazado 12" class="cls-1" d="M-77.23,751.64-87,778a2.14,2.14,0,0,1-.21.6,6.59,6.59,0,0,1-6.06,4h-1.11a6.61,6.61,0,0,1-6.17-4.3l-6.56-17.76a6.59,6.59,0,0,1,3.88-8.46,6.72,6.72,0,0,1,2.3-.41Z" transform="translate(107.5 -720.71)"/><path id="Trazado_13" data-name="Trazado 13" class="cls-2" d="M-31.25,782.57h-62a6.59,6.59,0,0,0,6.06-4A2.14,2.14,0,0,0-87,778l9.75-26.33h25.38a6.59,6.59,0,0,1,6.18,4.29l8.15,22a4.22,4.22,0,0,0,.26.67A6.52,6.52,0,0,0-31.25,782.57Z" transform="translate(107.5 -720.71)"/><path id="Trazado_14" data-name="Trazado 14" class="cls-3" d="M-6,729.58l-8.15,22.06L-24,778.27a6.58,6.58,0,0,1-6.18,4.3h-1.11a6.52,6.52,0,0,1-6-3.93,5.46,5.46,0,0,1-.26-.67l-8.15-22a6.57,6.57,0,0,0-6.17-4.29H-77.22L-67.4,725a6.6,6.6,0,0,1,6.17-4.29h49.1a6.6,6.6,0,0,1,6.57,6.62A6.63,6.63,0,0,1-6,729.58Z" transform="translate(107.5 -720.71)"/></g></svg>