<svg id="Capa_1" data-name="Capa 1" xmlns="http://www.w3.org/2000/svg" viewBox="0 0 244.42 42.16"><defs><style>.cls-1{fill:#11eacf;}.cls-2{fill:#fff;}.cls-3{fill:#6e8bff;}.cls-4{isolation:isolate;}</style></defs><title>38 Logotipo negativo</title><g id="Grupo_133" data-name="Grupo 133"><g id="Logo_Mobill" data-name="Logo Mobill"><g id="Trazado_12" data-name="Trazado 12"><path class="cls-1" d="M-231.64,752.28l-6.64,17.92a1.53,1.53,0,0,1-.14.41,4.48,4.48,0,0,1-4.12,2.72h-.76a4.49,4.49,0,0,1-4.2-2.92L-252,758.32a4.48,4.48,0,0,1,2.64-5.76,4.64,4.64,0,0,1,1.57-.28Z" transform="translate(252.24 -731.23)"/></g><g id="Trazado_13" data-name="Trazado 13"><path class="cls-2" d="M-200.35,773.33h-42.19a4.48,4.48,0,0,0,4.12-2.72,1.53,1.53,0,0,0,.14-.41l6.64-17.92h17.27a4.49,4.49,0,0,1,4.21,2.93l5.54,15a3.66,3.66,0,0,0,.18.46A4.42,4.42,0,0,0-200.35,773.33Z" transform="translate(252.24 -731.23)"/></g><g id="Trazado_14" data-name="Trazado 14"><path class="cls-3" d="M-183.14,737.27l-5.55,15-6.7,18.13a4.47,4.47,0,0,1-4.2,2.92h-.76a4.44,4.44,0,0,1-4.09-2.67,2.54,2.54,0,0,1-.17-.46l-5.55-15a4.48,4.48,0,0,0-4.2-2.93h-17.28l6.69-18.12a4.5,4.5,0,0,1,4.2-2.93h33.41a4.49,4.49,0,0,1,4.47,4.51A4.44,4.44,0,0,1-183.14,737.27Z" transform="translate(252.24 -731.23)"/></g></g><g id="mobill" class="cls-4"><g class="cls-4"><path class="cls-2" d="M-160.95,770.81v-22.1a2.45,2.45,0,0,1,.42-1.65,2.32,2.32,0,0,1,1.67-.44h1.59a2.32,2.32,0,0,1,1.62.42,2.44,2.44,0,0,1,.41,1.67v2.47a6.19,6.19,0,0,1,2.85-3.73A9.94,9.94,0,0,1-147,746a11.32,11.32,0,0,1,5.16,1.21,7.3,7.3,0,0,1,3.51,3.73,7.48,7.48,0,0,1,3.26-3.62,10.93,10.93,0,0,1,5.57-1.32,11.09,11.09,0,0,1,6.91,2.17q2.85,2.16,2.85,6.77v15.85a2.34,2.34,0,0,1-.41,1.62,2.46,2.46,0,0,1-1.67.41h-1.65a2.5,2.5,0,0,1-1.65-.38,2.5,2.5,0,0,1-.38-1.65v-13.6q0-6-5.37-6a6.58,6.58,0,0,0-4.72,1.83,7.16,7.16,0,0,0-1.92,5.41v12.39a2.34,2.34,0,0,1-.41,1.62,2.49,2.49,0,0,1-1.68.41h-1.59a2.47,2.47,0,0,1-1.61-.38,2.31,2.31,0,0,1-.42-1.65v-13.6a6.25,6.25,0,0,0-1.48-4.44,5.19,5.19,0,0,0-4-1.59,6.38,6.38,0,0,0-4.69,1.89q-1.89,1.89-1.89,5.73v12a2.36,2.36,0,0,1-.41,1.65,2.52,2.52,0,0,1-1.62.38h-1.59a2.44,2.44,0,0,1-1.67-.41A2.28,2.28,0,0,1-160.95,770.81Z" transform="translate(252.24 -731.23)"/><path class="cls-2" d="M-84.32,759.62q0,6.64-3.84,10.21t-10.53,3.56q-6.7,0-10.51-3.56T-113,759.62q0-6.52,3.84-10.06T-98.69,746q6.69,0,10.53,3.54T-84.32,759.62Zm-22.82,0a9.07,9.07,0,0,0,2.25,6.53,8.16,8.16,0,0,0,6.2,2.36,8.25,8.25,0,0,0,6.25-2.36,9.07,9.07,0,0,0,2.25-6.53,8.77,8.77,0,0,0-2.25-6.41,8.33,8.33,0,0,0-6.25-2.31,8.24,8.24,0,0,0-6.2,2.31A8.77,8.77,0,0,0-107.14,759.62Z" transform="translate(252.24 -731.23)"/><path class="cls-2" d="M-52.51,749.45q3.45,3.42,3.45,10.23t-3.51,10.25a12.77,12.77,0,0,1-9.38,3.46q-6.58,0-9.49-4.28l-.49,2a3.28,3.28,0,0,1-.9,1.59,3.05,3.05,0,0,1-1.73.38h-.77a2.32,2.32,0,0,1-1.67-.44,2.4,2.4,0,0,1-.42-1.64V733.79a2.4,2.4,0,0,1,.42-1.64,2.28,2.28,0,0,1,1.67-.44h1.65a2.17,2.17,0,0,1,1.61.44,2.4,2.4,0,0,1,.41,1.64v16.67l0,.44Q-68.8,746-61.78,746A12.63,12.63,0,0,1-52.51,749.45Zm-16.7,3.76a8.92,8.92,0,0,0-2.34,6.58,8.58,8.58,0,0,0,2.39,6.5A8.53,8.53,0,0,0-63,768.56a7.77,7.77,0,0,0,5.95-2.3,9.1,9.1,0,0,0,2.16-6.47,9.36,9.36,0,0,0-2.19-6.53,7.67,7.67,0,0,0-6-2.41A8.17,8.17,0,0,0-69.21,753.21Z" transform="translate(252.24 -731.23)"/><path class="cls-2" d="M-43.14,737.3a4,4,0,0,1,1.07-2.8,3.85,3.85,0,0,1,2.94-1.15,3.77,3.77,0,0,1,2.91,1.15,4,4,0,0,1,1,2.8,3.6,3.6,0,0,1-1,2.63A3.87,3.87,0,0,1-39.13,741a4,4,0,0,1-2.94-1.05A3.52,3.52,0,0,1-43.14,737.3ZM-42,770.81v-22.1a2.45,2.45,0,0,1,.41-1.65,2.21,2.21,0,0,1,1.61-.44h1.65a2.32,2.32,0,0,1,1.62.42,2.44,2.44,0,0,1,.41,1.67v22.1a2.5,2.5,0,0,1-.38,1.65,2.5,2.5,0,0,1-1.65.38H-40a2.33,2.33,0,0,1-1.61-.41A2.29,2.29,0,0,1-42,770.81Z" transform="translate(252.24 -731.23)"/><path class="cls-2" d="M-27.78,770.81v-37a2.46,2.46,0,0,1,.41-1.64,2.29,2.29,0,0,1,1.67-.44H-24a2.2,2.2,0,0,1,1.62.44,2.46,2.46,0,0,1,.41,1.64v37a2.34,2.34,0,0,1-.41,1.62,2.36,2.36,0,0,1-1.62.41H-25.7a2.46,2.46,0,0,1-1.67-.41A2.34,2.34,0,0,1-27.78,770.81Z" transform="translate(252.24 -731.23)"/><path class="cls-2" d="M-13.58,770.81v-37a2.4,2.4,0,0,1,.42-1.64,2.28,2.28,0,0,1,1.67-.44h1.65a2.17,2.17,0,0,1,1.61.44,2.4,2.4,0,0,1,.41,1.64v37a2.29,2.29,0,0,1-.41,1.62,2.33,2.33,0,0,1-1.61.41h-1.65a2.44,2.44,0,0,1-1.67-.41A2.28,2.28,0,0,1-13.58,770.81Z" transform="translate(252.24 -731.23)"/></g></g></g></svg>